<?xml version="1.0" encoding="UTF-8" standalone="no"?>
<svg width="27px" height="33px" viewBox="0 0 27 33" version="1.1" xmlns="http://www.w3.org/2000/svg" xmlns:xlink="http://www.w3.org/1999/xlink">
    <!-- Generator: Sketch 3.8.2 (29753) - http://www.bohemiancoding.com/sketch -->
    <title>social-color-1_logo-500px</title>
    <desc>Created with Sketch.</desc>
    <defs></defs>
    <g id="Page-1" stroke="none" stroke-width="1" fill="none" fill-rule="evenodd">
        <g id="Desktop-HD-Copy-11" transform="translate(-374.000000, -623.000000)" fill="#000000">
            <g id="social-color-1_logo-500px" transform="translate(374.000000, 623.000000)">
                <path d="M4.74497978,21.6829869 C4.75223917,21.703 4.9243537,22.1757181 5.02404739,22.4100456 C5.57140772,23.6957806 6.35524819,24.8507325 7.35386678,25.8428019 C8.35172413,26.8341013 9.51442279,27.6127156 10.8097073,28.1569888 C12.150555,28.7204844 13.5745914,29.0061956 15.0422534,29.0061956 C16.5096455,29.0061956 17.933682,28.7204363 19.2748065,28.1568788 C20.5695928,27.6128119 21.7323399,26.8340806 22.7306401,25.8423275 C23.7288573,24.8507119 24.5126978,23.6956019 25.0604595,22.409145 C25.6276672,21.0768731 25.9152606,19.6621494 25.9152606,18.2042713 C25.9152606,16.7462831 25.6276672,15.3315662 25.0604595,13.9993975 C24.5127878,12.7130369 23.7289542,11.5579269 22.7306401,10.5661531 C21.7326513,9.57459937 20.5699111,8.79585437 19.2748065,8.25156062 C17.9338204,7.688065 16.5097839,7.40234687 15.0422534,7.40234687 C13.5573115,7.40234687 12.073546,7.69599187 10.7512793,8.25156062 C9.69441953,8.69576812 7.9054554,9.83930062 6.85829098,10.9121719 L6.85211116,10.9184694 L6.85211116,2.02863375 L21.8836451,2.02849625 C22.4306386,2.02255625 22.4306386,1.26368 22.4306386,1.01431688 C22.4306386,0.764995 22.4306386,0.006318125 21.8819704,0.000116875 L5.62892917,0 C5.18645967,0 4.91257536,0.365646875 4.91257536,0.70442625 L4.91257536,13.2172906 C4.91257536,13.6209838 5.41874612,13.9124563 5.88904902,14.0124256 C6.80750989,14.2073181 7.01967214,13.9156669 7.24460924,13.6070275 L7.27442877,13.5660869 C7.61782739,13.05931 8.6909775,11.9863219 8.70171087,11.9756381 C10.3764418,10.3119362 12.6156746,9.39569812 15.0068492,9.39569812 C17.3866054,9.39569812 19.6194785,10.3119294 21.2941609,11.9756106 C22.9745319,13.6450738 23.8999822,15.8571256 23.8999822,18.2042781 C23.8999822,20.5599006 22.9792654,22.7718631 21.3074687,24.4327463 C19.6570072,26.0723856 17.3513673,27.0127756 14.9817632,27.0127756 C13.376775,27.0127756 11.827502,26.5879213 10.5003703,25.7838969 L10.5060519,18.1755612 C10.5060519,17.1610862 10.9491926,16.0582537 11.6914422,15.2254919 C12.5400635,14.2734487 13.7095717,13.7491269 14.9846489,13.7491269 C16.2194847,13.7491269 17.372751,14.2148462 18.2320642,15.0604919 C19.0851906,15.9001287 19.5550506,17.0187806 19.5550506,18.2103762 C19.5550506,20.7528888 17.5426026,22.7445281 14.9735488,22.7445281 C14.4782983,22.7445281 13.5779755,22.5271406 13.5409865,22.5181756 C13.0222347,22.3646981 12.8015812,23.0801244 12.7289528,23.3159369 C12.4497468,24.2228731 12.8693447,24.4026544 12.9562774,24.4295012 C13.7830167,24.6843781 14.3250969,24.7326956 15.0362605,24.7326956 C18.6629422,24.7326956 21.61347,21.8000406 21.61347,18.1953475 C21.61347,14.6195844 18.6647484,11.7104762 15.0402742,11.7104762 C13.2653445,11.7104762 11.5979214,12.384515 10.3452243,13.6084437 C9.1522079,14.774045 8.46797808,16.328235 8.46797808,17.8721194 L8.46729989,17.9104406 C8.46147993,18.1029544 8.45768761,22.664015 8.45660804,24.1608194 L8.44984,24.1533875 C7.76809457,23.40349 7.09437667,22.25564 6.64762351,21.0828681 C6.47249174,20.62324 6.07699025,20.7046056 5.53720764,20.8697362 C5.30148873,20.9418687 4.5841038,21.1614081 4.74276529,21.6765862 L4.74497978,21.6829869 L4.74497978,21.6829869 Z M12.4707706,19.8954044 C12.4731166,20.1141119 12.6745455,20.3058281 12.7948616,20.4204 L12.8326672,20.4566381 C13.0390164,20.658275 13.2355734,20.7605063 13.416795,20.7605063 C13.5668822,20.7605063 13.659365,20.6899825 13.6921187,20.6596844 C13.7830237,20.57583 14.8112403,19.540785 14.9093147,19.4420531 L16.0559929,20.5775625 C16.1621432,20.6963763 16.2775459,20.7559138 16.4120279,20.759585 C16.5951388,20.759585 16.7946784,20.6514206 17.0050829,20.4380688 C17.4998837,19.9361525 17.2523034,19.665525 17.1325754,19.5346731 L15.9707349,18.3800788 L17.1823808,17.1678444 C17.4480991,16.8822225 17.2135082,16.5786706 16.979464,16.3461375 C16.6396293,16.00852 16.311746,15.9213931 16.1016045,16.1137763 L14.8968166,17.3127419 L13.6784927,16.1020544 C13.6139333,16.040585 13.5325092,16.0080938 13.4430021,16.0080938 C13.2806383,16.0080938 13.0885449,16.1171588 12.8720021,16.3322844 C12.4972961,16.7044488 12.4169446,16.9617525 12.6119722,17.1670125 L13.8306145,18.3739806 L12.6191486,19.57967 C12.5194895,19.6785325 12.4695526,19.7847719 12.4707706,19.8954044 L12.4707706,19.8954044 Z M15.1259405,3.535675 C13.1782734,3.535675 11.1065531,3.92626438 9.58439384,4.5804 C9.42167014,4.64368438 9.32440547,4.77353938 9.30307022,4.95592625 C9.2830429,5.1280075 9.32982406,5.35502688 9.44621641,5.65046625 C9.54059533,5.89010813 9.79133127,6.52669875 10.2767481,6.34272375 C11.8345953,5.75236063 13.5567371,5.427235 15.1259474,5.427235 C16.9040329,5.427235 18.6284791,5.77299938 20.2514739,6.45495125 C21.54107,6.99692813 22.7578645,7.77978438 24.0808025,8.91864875 C24.1772506,9.00171938 24.2796155,9.04382188 24.3850392,9.04382188 C24.6429515,9.04382188 24.8903518,8.79214875 25.1019812,8.55622625 C25.4552136,8.16252938 25.6977836,7.83533438 25.349783,7.50785063 C24.0864356,6.3189225 22.7021008,5.43076875 20.9931283,4.7128125 C19.1345115,3.93173 17.1604988,3.535675 15.1259405,3.535675 L15.1259405,3.535675 Z M25.6207746,27.4289469 L25.6208161,27.4289469 C25.3864536,27.1967644 25.1873707,27.0596494 25.0122389,27.0097437 C24.8346781,26.9590956 24.6760997,26.9968325 24.5536175,27.11885 L24.4383116,27.2331812 C23.2311778,28.4325456 21.8254524,29.3741525 20.2602558,30.0318287 C18.6405204,30.7124537 16.9194097,31.0575512 15.1447083,31.0575512 C13.37,31.0575512 11.6489447,30.7124537 10.0292024,30.0318287 C8.46414424,29.3742212 7.0585088,28.4326625 5.85132652,27.2332706 C4.5936192,25.983815 3.64584399,24.5874475 3.03442254,23.0829156 C2.43825341,21.6158937 2.24354413,20.512525 2.17957297,20.1499719 C2.17357308,20.1160231 2.16883268,20.0891556 2.16511649,20.06972 C2.08307645,19.64281 1.68752652,19.6129381 1.11908007,19.6993225 C0.88266913,19.735265 0.163249638,19.8445981 0.231753587,20.3588206 L0.233400616,20.3705631 C0.423867754,21.5609006 0.760346087,22.7280212 1.23351399,23.8394819 C1.99405384,25.6258062 3.08256699,27.2297437 4.46874949,28.6067512 C5.85498043,29.9839787 7.46958094,31.06532 9.26761065,31.8207725 C11.1291548,32.6032506 13.106503,33 15.1447083,33 C17.1818756,33 19.1592723,32.6030512 21.0218545,31.820195 C22.819289,31.0650175 24.4338895,29.9834494 25.8207571,28.6056169 C25.8239612,28.6024544 25.8997038,28.5277644 25.9411633,28.4829256 C26.0937833,28.3178569 26.2265975,28.0290106 25.6207746,27.4289469 L25.6207746,27.4289469 Z" id="Shape"></path>
            </g>
        </g>
    </g>
</svg>