<?xml version="1.0" encoding="UTF-8" standalone="no"?>
<svg width="34px" height="33px" viewBox="0 0 34 33" version="1.1" xmlns="http://www.w3.org/2000/svg" xmlns:xlink="http://www.w3.org/1999/xlink">
    <!-- Generator: Sketch 3.8.2 (29753) - http://www.bohemiancoding.com/sketch -->
    <title>social-color-1_logo-codepen</title>
    <desc>Created with Sketch.</desc>
    <defs></defs>
    <g id="Page-1" stroke="none" stroke-width="1" fill="none" fill-rule="evenodd">
        <g id="Desktop-HD-Copy-11" transform="translate(-319.000000, -623.000000)">
            <g id="social-color-1_logo-codepen" transform="translate(319.000000, 623.000000)">
                <g id="Group">
                    <ellipse id="Oval" fill="#030502" cx="16.6086957" cy="16.5" rx="16.6086957" ry="16.5"></ellipse>
                    <path d="M27.2573747,12.36191 L17.1364992,5.65885375 C16.8167888,5.44708312 16.4005679,5.44708312 16.0808229,5.65885375 L5.95994739,12.36191 C5.70614576,12.5311175 5.53623188,12.8275125 5.53623188,13.1483275 L5.53623188,19.8513906 C5.53623188,20.1758906 5.71105917,20.4754206 5.95994739,20.6377325 L16.0808159,27.3408712 C16.2406677,27.4467187 16.4247613,27.4999794 16.6087995,27.4999794 C16.7925539,27.4999794 16.9765644,27.4467187 17.1364923,27.3408712 L27.2573678,20.6377325 C27.5021938,20.4801506 27.6811594,20.1795894 27.6811594,19.8513906 L27.6811594,13.1483275 C27.6811594,12.8441912 27.5237367,12.5371812 27.2573747,12.36191 L27.2573747,12.36191 Z M17.5602909,8.2118575 L25.016052,13.1494687 L21.6858009,15.3627925 L17.5602978,12.6211594 L17.5602978,8.2118575 L17.5602909,8.2118575 Z M15.6570589,8.2118575 L15.6570589,12.6211594 L11.5317842,15.3627925 L8.20126319,13.1494687 L15.6570589,8.2118575 L15.6570589,8.2118575 Z M7.43942232,14.9178494 L9.82024424,16.4998556 L7.43942232,18.0819031 L7.43942232,14.9178494 L7.43942232,14.9178494 Z M15.6570589,24.7878606 L8.20126319,19.8502081 L11.5317842,17.6374894 L15.6570589,20.3785587 L15.6570589,24.7878606 L15.6570589,24.7878606 Z M16.6088064,18.7363275 L13.2430611,16.4998556 L16.6088064,14.2633906 L19.9742956,16.4998556 L16.6088064,18.7363275 L16.6088064,18.7363275 Z M17.5602909,24.7878606 L17.5602909,20.3785587 L21.685794,17.6374894 L25.0160451,19.8502081 L17.5602909,24.7878606 L17.5602909,24.7878606 Z M25.7778929,18.0819031 L23.3973754,16.4998556 L25.7778929,14.9178494 L25.7778929,18.0819031 L25.7778929,18.0819031 Z" id="Shape" fill="#FFFFFF"></path>
                </g>
            </g>
        </g>
    </g>
</svg>