<?xml version="1.0" encoding="UTF-8" standalone="no"?>
<svg width="33px" height="33px" viewBox="0 0 33 33" version="1.1" xmlns="http://www.w3.org/2000/svg" xmlns:xlink="http://www.w3.org/1999/xlink">
    <!-- Generator: Sketch 3.8.2 (29753) - http://www.bohemiancoding.com/sketch -->
    <title>social-color-1_logo-github</title>
    <desc>Created with Sketch.</desc>
    <defs></defs>
    <g id="Page-1" stroke="none" stroke-width="1" fill="none" fill-rule="evenodd">
        <g id="Desktop-HD-Copy-11" transform="translate(-210.000000, -623.000000)" fill="#191717">
            <g id="social-color-1_logo-github" transform="translate(210.000000, 623.000000)">
                <path d="M16.4989344,0.407446875 C7.38812938,0.407446875 0,7.79466188 0,16.9084025 C0,24.1976763 4.72729125,30.382055 11.2845288,32.56418 C12.1095563,32.7155125 12.410695,32.2061163 12.410695,31.7688388 C12.410695,31.3771425 12.3964156,30.3395056 12.3884131,28.9625463 C7.79867688,29.9596619 6.83023,26.750735 6.83023,26.750735 C6.07995438,24.8446206 4.99825563,24.3371494 4.99825563,24.3371494 C3.500145,23.3133931 5.11160375,23.3341556 5.11160375,23.3341556 C6.76742688,23.450845 7.63893625,25.0345425 7.63893625,25.0345425 C9.11081188,27.5560038 11.5006925,26.8279138 12.4408831,26.4055275 C12.5907925,25.3392288 13.0170356,24.6121563 13.4884475,24.1996906 C9.82451938,23.7832788 5.97269063,22.3677231 5.97269063,16.0448819 C5.97269063,14.2436044 6.6155925,12.770725 7.67104938,11.6173131 C7.50138813,11.1998906 6.93516313,9.52229438 7.83281125,7.2506225 C7.83281125,7.2506225 9.21817875,6.806965 12.3701806,8.94209938 C13.6862688,8.57612938 15.0977681,8.39309625 16.5009694,8.38671625 C17.9021425,8.39309625 19.313745,8.57612938 20.6317581,8.94209938 C23.781835,6.806965 25.1646725,7.2506225 25.1646725,7.2506225 C26.0648506,9.52229438 25.4985294,11.1998906 25.3288681,11.6173131 C26.3863531,12.770725 27.0248963,14.2436113 27.0248963,16.0448819 C27.0248963,22.3835288 23.1670931,23.778315 19.4913125,24.1868275 C20.0837656,24.6962238 20.6114975,25.7032669 20.6114975,27.2424006 C20.6114975,29.4482306 20.5912369,31.2278313 20.5912369,31.7688319 C20.5912369,32.2100556 20.8884294,32.723405 21.7258113,32.5622481 C28.2766481,30.3760738 33,24.1957513 33,16.9084025 C33,7.79466188 25.6117675,0.407446875 16.4989344,0.407446875 L16.4989344,0.407446875 Z" id="Shape"></path>
            </g>
        </g>
    </g>
</svg>