<?xml version="1.0" encoding="UTF-8" standalone="no"?>
<svg width="29px" height="23px" viewBox="0 0 29 23" version="1.1" xmlns="http://www.w3.org/2000/svg" xmlns:xlink="http://www.w3.org/1999/xlink">
    <!-- Generator: Sketch 3.8.2 (29753) - http://www.bohemiancoding.com/sketch -->
    <title>D</title>
    <desc>Created with Sketch.</desc>
    <defs></defs>
    <g id="Page-1" stroke="none" stroke-width="1" fill="none" fill-rule="evenodd">
        <g id="Desktop-HD-Copy-11" transform="translate(-21.000000, -20.000000)" fill="#4A4A4A">
            <path d="M24.3588491,42.9310747 L24.2669486,42.9310747 C23.7921273,42.900441 23.3288006,42.8238581 22.8769545,42.7013236 C22.4251084,42.578789 22.0077314,42.3643568 21.624811,42.0580205 C21.456326,41.935486 21.3146476,41.7746618 21.1997715,41.5755432 C21.0848953,41.3764246 21.0197998,41.1696506 21.004483,40.9552152 C20.9738494,40.4650771 21.1002112,40.0668458 21.3835723,39.7605095 C21.6669334,39.4541732 22.0192149,39.2167661 22.4404274,39.0482811 C22.8616399,38.8797961 23.3058209,38.7687508 23.7729838,38.715142 C24.2401467,38.6615331 24.6575237,38.6347291 25.0251273,38.6347291 C25.4539981,38.6500459 25.8752043,38.6768499 26.2887583,38.715142 C26.7023124,38.753434 27.1158602,38.8108712 27.5294143,38.8874553 C27.7744833,38.9180889 28.0118904,38.9487221 28.2416427,38.9793558 C28.4713949,39.0099894 28.7011437,39.0635974 28.930896,39.1401815 C29.3750836,39.2933497 29.7311943,39.3086663 29.9992386,39.1861317 C30.2672829,39.0635972 30.5468106,38.8261901 30.8378301,38.4739033 C31.2054337,38.0297157 31.5309112,37.5549015 31.8142723,37.0494465 C32.0976334,36.5439916 32.3771611,36.0385442 32.6528638,35.5330893 C33.0051506,34.8591493 33.3842361,34.2005361 33.7901317,33.5572298 C34.1960274,32.9139235 34.5980878,32.2629686 34.996325,31.6043455 C35.3486118,31.0223064 35.6894058,30.4441053 36.0187174,29.8697247 C36.3480289,29.295344 36.7271145,28.7401178 37.1559853,28.2040292 C37.600173,27.6219901 38.0634998,27.0744222 38.5459795,26.5613088 C39.0284592,26.0481955 39.5607106,25.5618938 40.1427496,25.1023893 C40.9239073,24.5050335 41.7663195,24.0608525 42.6700117,23.769833 C42.7925463,23.7238825 42.968687,23.6664453 43.1984393,23.5975196 C43.4281915,23.528594 43.6617695,23.4711568 43.8991801,23.4252063 C44.1365908,23.3792559 44.3663396,23.3639393 44.5884334,23.3792561 C44.8105272,23.3945729 44.9828388,23.4558392 45.1053734,23.563057 C45.2432247,23.7009083 45.2968328,23.823441 45.2661992,23.9306587 C45.2355655,24.0378764 45.1628117,24.129776 45.0479356,24.20636 C44.9330595,24.2829441 44.7990393,24.3442105 44.6458712,24.3901609 C44.492703,24.4361114 44.3701703,24.4744028 44.2782694,24.5050365 C43.8800322,24.627571 43.5468964,24.8266866 43.2788521,25.1023893 C43.0108078,25.378092 42.7465967,25.6691072 42.4862108,25.9754435 C42.0267063,26.4962153 41.6055002,27.0476124 41.2225798,27.6296514 C40.8396594,28.2116905 40.4758904,28.8090373 40.1312621,29.42171 C39.7866337,30.0343827 39.4573271,30.6508753 39.1433323,31.2712064 C38.8293376,31.8915374 38.5115184,32.50803 38.1898653,33.1207027 C37.9907467,33.4883063 37.7992893,33.8520752 37.6154875,34.2120204 C37.4316857,34.5719656 37.2402284,34.9280763 37.0411098,35.280363 C36.5969221,36.0768375 36.0914747,36.846496 35.5247525,37.5893616 C34.9580303,38.3322272 34.3377085,39.0099862 33.6637686,39.6226588 C33.5718677,39.6992429 33.4684808,39.7911424 33.3536046,39.8983602 C33.2387285,40.0055779 33.1966079,40.1281106 33.2272415,40.2659619 C33.2578752,40.3884964 33.3536038,40.4880543 33.5144304,40.5646383 C33.675257,40.6412224 33.8169354,40.6948305 33.9394699,40.7254641 C34.1998558,40.8326818 34.4678961,40.9169231 34.7435988,40.9781903 C35.0193015,41.0394576 35.2873418,41.1083822 35.5477276,41.1849663 C36.0072321,41.292184 36.4820463,41.3611087 36.9721845,41.3917423 C37.4623226,41.4223759 37.9486242,41.4032302 38.4311039,41.3343045 C38.9135837,41.2653789 39.3807396,41.1428462 39.8325856,40.9667028 C40.2844317,40.7905594 40.6941504,40.5493231 41.061754,40.2429868 C41.9501294,39.5230964 42.7274462,38.7189756 43.3937277,37.8306003 C44.0600092,36.9422249 44.6382104,35.9772799 45.1283485,34.9357364 C45.250883,34.6600337 45.3695866,34.3843351 45.4844627,34.1086324 C45.5993388,33.8329297 45.7180424,33.5495729 45.8405769,33.2585534 C46.2541309,32.1863762 46.5566335,31.0682654 46.7480937,29.9041873 C46.939554,28.7401093 46.9510414,27.583707 46.7825564,26.4349457 C46.6600219,25.5925208 46.3996399,24.7845708 46.0014027,24.0110716 C45.6031654,23.2375724 45.0211351,22.6363963 44.2552943,22.2075255 C43.2443844,21.6408033 42.164565,21.3191549 41.0158038,21.2425709 C39.8670426,21.1659868 38.7336151,21.2349114 37.6154875,21.4493468 C37.2785176,21.5259309 36.9453818,21.6101722 36.6160702,21.7020731 C36.2867587,21.793974 35.9689395,21.9011901 35.6626032,22.0237246 C35.3715837,22.1462591 35.092056,22.2649627 34.8240117,22.3798388 C34.5559674,22.4947149 34.2917563,22.6210768 34.0313704,22.7589281 C32.9898268,23.2643831 32.0478568,23.9651169 31.2054318,24.8611507 C30.3630069,25.7571844 29.6967354,26.7183003 29.2065973,27.744527 C29.0534291,28.0508633 28.9117507,28.4146322 28.7815577,28.8358447 C28.6513648,29.2570572 28.5747819,29.6859216 28.5518066,30.1224509 C28.5288314,30.5589801 28.5747812,30.9763571 28.6896573,31.3745944 C28.8045334,31.7728316 29.0304531,32.0944799 29.3674231,32.339549 C29.6584426,32.5539844 29.9724326,32.6880045 30.3094026,32.7416134 C30.6463725,32.7952223 30.9833374,32.7990514 31.3203074,32.753101 C31.6572774,32.7071505 31.9904131,32.615251 32.3197247,32.4773996 C32.6490362,32.3395483 32.9515388,32.1863824 33.2272415,32.0178974 C33.3191424,31.971947 33.4187002,31.8877058 33.525918,31.7651712 C33.6331357,31.6426367 33.7480101,31.6120035 33.8705446,31.6732708 C33.9930791,31.7192212 34.0543455,31.8034625 34.0543455,31.925997 C34.0543455,32.0485315 34.0390289,32.1557476 34.0083953,32.2476485 C33.9624448,32.4927176 33.8667161,32.7033207 33.7212064,32.8794641 C33.5756966,33.0556074 33.4110433,33.2126025 33.2272415,33.3504538 C33.0434397,33.4883052 32.8443241,33.6108379 32.6298887,33.7180556 C32.4154532,33.8252733 32.2086793,33.9248311 32.0095607,34.016732 C31.4887889,34.2771179 30.9297335,34.4953792 30.3323777,34.6715226 C29.7350218,34.847666 29.1453332,34.8821283 28.5632942,34.7749106 C27.8893543,34.6523761 27.3188114,34.3613609 26.8516485,33.9018565 C26.3844856,33.442352 26.0666664,32.8909548 25.8981814,32.2476485 C25.8062805,31.8953618 25.7335268,31.5047888 25.6799179,31.0759179 C25.626309,30.6470471 25.6301382,30.2564741 25.6914055,29.9041873 C25.8598904,28.9239111 26.2160011,28.0125741 26.7597481,27.1701492 C27.3034951,26.3277243 27.8970128,25.5465784 28.5403191,24.826688 C29.1223581,24.1833817 29.7426799,23.6051806 30.401303,23.0920672 C31.0599261,22.5789539 31.787464,22.138602 32.5839384,21.7709984 C33.5335811,21.3268107 34.5253301,20.9592126 35.5592152,20.6681931 C36.5931003,20.3771736 37.6307991,20.1703997 38.6723426,20.0478651 C39.4535002,19.9712811 40.2231587,19.9865976 40.9813411,20.0938154 C41.7395236,20.2010331 42.5015238,20.3388824 43.2673646,20.5073673 C43.9106709,20.6299019 44.5195052,20.7983843 45.0938858,21.0128198 C45.6682664,21.2272552 46.2234927,21.5259286 46.7595813,21.908849 C47.0506008,22.1232845 47.3224702,22.3606916 47.5751977,22.6210775 C47.8279252,22.8814633 48.0615031,23.1495036 48.2759386,23.4252063 C48.7048094,23.9766117 49.0379452,24.5663003 49.2753558,25.1942898 C49.5127665,25.8222793 49.6850781,26.4808925 49.7922958,27.1701492 C49.9760976,28.3342273 50.0182182,29.4982879 49.9186589,30.6623659 C49.8190996,31.826444 49.5472302,32.9598714 49.1030425,34.0626822 C48.8732903,34.6600381 48.6014209,35.2305809 48.2874261,35.7743279 C47.9734314,36.3180749 47.624979,36.8579846 47.2420586,37.3940732 C47.1348409,37.5625581 47.0161373,37.715724 46.8859444,37.8535754 C46.7557515,37.9914267 46.6293896,38.1369343 46.5068551,38.2901025 C45.3121434,39.6226655 43.8991883,40.67951 42.2679473,41.4606676 C40.6367063,42.2418253 38.9327361,42.7089812 37.1559853,42.8621493 C36.3901445,42.9234166 35.6281443,42.9195875 34.8699619,42.8506618 C34.1117795,42.7817361 33.3650959,42.6706909 32.6298887,42.5175227 C32.2010178,42.4256218 31.7721534,42.2992599 31.3432825,42.1384334 C30.9144116,41.9776068 30.4778889,41.9125113 30.0337012,41.9431449 C29.6048304,41.9737786 29.1989408,42.088653 28.8160204,42.2877716 C28.4331,42.4868902 28.0348687,42.6400561 27.6213147,42.7472738 C27.0852261,42.8698083 26.5414873,42.938733 25.9900819,42.9540498 C25.4386765,42.9693666 24.8949377,42.9617083 24.3588491,42.9310747 L24.3588491,42.9310747 Z M25.392729,41.5066179 C25.4386795,41.5066179 25.5880162,41.4874721 25.8407437,41.4491801 C26.0934711,41.410888 26.3538531,41.35728 26.6218974,41.2883543 C26.8899417,41.2194286 27.1235196,41.1351874 27.3226383,41.0356281 C27.5217569,40.9360688 27.5983398,40.8326818 27.5523894,40.7254641 C27.5370725,40.6795137 27.4834645,40.6488805 27.3915636,40.6335637 C27.2996627,40.6182469 27.2383963,40.6029303 27.2077627,40.5876135 C26.9626936,40.5110294 26.7252866,40.4344464 26.4955343,40.3578624 C26.2657821,40.2812783 26.0360333,40.2046953 25.806281,40.1281113 L25.392729,39.9902606 C25.1170263,39.9136765 24.8030363,39.8600685 24.4507495,39.8294348 C24.0984627,39.7988012 23.792131,39.8600675 23.5317451,40.0132357 C23.3173097,40.1357702 23.194777,40.311911 23.1641434,40.5416632 C23.1335097,40.7714155 23.2100927,40.9705311 23.3938945,41.1390161 C23.5930131,41.3075011 23.8304202,41.4070589 24.1061229,41.4376925 C24.3818256,41.4683262 24.6422075,41.491301 24.8872766,41.5066179 C25.0404448,41.5219347 25.2089272,41.5219347 25.392729,41.5066179 L25.392729,41.5066179 Z" id="D"></path>
        </g>
    </g>
</svg>