<?xml version="1.0" encoding="UTF-8" standalone="no"?>
<svg width="34px" height="33px" viewBox="0 0 34 33" version="1.1" xmlns="http://www.w3.org/2000/svg" xmlns:xlink="http://www.w3.org/1999/xlink">
    <!-- Generator: Sketch 3.8.2 (29753) - http://www.bohemiancoding.com/sketch -->
    <title>social-color-1_logo-linkedin</title>
    <desc>Created with Sketch.</desc>
    <defs></defs>
    <g id="Page-1" stroke="none" stroke-width="1" fill="none" fill-rule="evenodd">
        <g id="Desktop-HD-Copy-11" transform="translate(-422.000000, -623.000000)">
            <g id="social-color-1_logo-linkedin" transform="translate(422.000000, 623.000000)">
                <g id="Group">
                    <path d="M30.7596711,0 L2.4504954,0 C1.09887975,0 0.00046365942,1.0652675 0.00046365942,2.37938938 L0.00046365942,30.618775 C0.00046365942,31.9329106 1.09887975,33 2.4504954,33 L30.759678,33 C32.1140272,33 33.2169346,31.9329106 33.2169346,30.618775 L33.2169346,2.37938938 C33.2169276,1.0652675 32.1140203,0 30.7596711,0 L30.7596711,0 Z" id="Shape" fill="#007BB5"></path>
                    <path d="M4.92215304,12.371425 L9.85375228,12.371425 L9.85375228,28.1194856 L4.92215304,28.1194856 L4.92215304,12.371425 L4.92215304,12.371425 Z M7.3893125,4.54304813 C8.96530471,4.54304813 10.2447971,5.814655 10.2447971,7.38123375 C10.2447971,8.94824563 8.96529779,10.2198319 7.3893125,10.2198319 C5.80702283,10.2198319 4.53109438,8.9482525 4.53109438,7.38123375 C4.53109438,5.814655 5.80701591,4.54304813 7.3893125,4.54304813 L7.3893125,4.54304813 Z" id="Shape" fill="#FFFFFF"></path>
                    <path d="M12.9444506,12.371425 L17.6670433,12.371425 L17.6670433,14.5243106 L17.7345853,14.5243106 C18.3914592,13.2862606 19.9989941,11.98065 22.3959057,11.98065 C27.3842375,11.98065 28.30611,15.2414144 28.30611,19.4827394 L28.30611,28.1194787 L23.3798809,28.1194787 L23.3798809,20.4611894 C23.3798809,18.6350037 23.3483244,16.2855894 20.8199273,16.2855894 C18.2563751,16.2855894 17.8652404,18.2760394 17.8652404,20.330475 L17.8652404,28.1194856 L12.9444506,28.1194856 L12.9444506,12.371425 L12.9444506,12.371425 Z" id="Shape" fill="#FFFFFF"></path>
                </g>
            </g>
        </g>
    </g>
</svg>