<?xml version="1.0" encoding="UTF-8" standalone="no"?>
<svg width="35px" height="30px" viewBox="0 0 35 30" version="1.1" xmlns="http://www.w3.org/2000/svg" xmlns:xlink="http://www.w3.org/1999/xlink">
    <!-- Generator: Sketch 3.8.2 (29753) - http://www.bohemiancoding.com/sketch -->
    <title>Group 4</title>
    <desc>Created with Sketch.</desc>
    <defs></defs>
    <g id="Page-1" stroke="none" stroke-width="1" fill="none" fill-rule="evenodd">
        <g id="Desktop-HD-Copy-11" transform="translate(-477.000000, -624.000000)">
            <g id="Group-4" transform="translate(477.000000, 624.000000)">
                <path d="M24.2223333,0.119812792 C23.691,-0.148838894 23.2563333,0.1228465 23.2563333,0.723520657 L23.2563333,24.6186892 L32.9526667,29.5214982 C34.0196667,30.060824 34.8846667,29.6832959 34.8846667,28.6781274 L34.8846667,5.66779032 C34.8846667,5.5717229 34.8306667,5.4834083 34.7456667,5.44026223 L24.2223333,0.119812792" id="Fill-1" fill="#32FC8D"></path>
                <path d="M11.6283333,18.7393634 L22.6903333,0.561385825 C23.0016667,0.0497004321 23.691,-0.148838894 24.2223333,0.119812792 L34.7576667,5.44632965 C34.826,5.48104875 34.8503333,5.56734088 34.8103333,5.63307122 L23.2563333,24.6186892 L11.6283333,18.7393634" id="Fill-2" fill="#0BE370"></path>
                <path d="M1.61,0.445430769 C0.724333333,-0.00254675891 0.424333333,0.328801556 0.943333333,1.18161054 L11.6283333,18.7393634 L23.2563333,24.6186892 L11.6533333,5.55183526 C11.637,5.52486897 11.6133333,5.50329594 11.5853333,5.48913863 L1.61,0.445430769" id="Fill-3" fill="#14C767"></path>
                <path d="M11.6283333,28.6781274 C11.6283333,29.679251 10.9036667,30.1319476 10.0183333,29.6843072 L0.966,25.1071162 C0.434666667,24.8384645 0,24.1272285 0,23.5265544 L0,1.0875656 C0,0.286666724 0.579666667,-0.0756928263 1.288,0.28262178 L11.5656667,5.47902627 C11.604,5.49857684 11.6283333,5.53801504 11.6283333,5.58116111 L11.6283333,28.6781274" id="Fill-4" fill="#00AB6C"></path>
            </g>
        </g>
    </g>
</svg>