<?xml version="1.0" encoding="UTF-8" standalone="no"?>
<svg width="259px" height="125px" viewBox="0 0 259 125" version="1.1" xmlns="http://www.w3.org/2000/svg" xmlns:xlink="http://www.w3.org/1999/xlink">
    <!-- Generator: Sketch 3.8.2 (29753) - http://www.bohemiancoding.com/sketch -->
    <title>Group 2</title>
    <desc>Created with Sketch.</desc>
    <defs></defs>
    <g id="Page-1" stroke="none" stroke-width="1" fill="none" fill-rule="evenodd">
        <g id="Desktop-HD-Copy-11" transform="translate(-231.000000, -264.000000)" fill="#4A4A4A">
            <g id="Group-2" transform="translate(230.000000, 264.000000)">
                <path d="M15.9725941,103.067719 L15.562386,103.067719 C13.4429671,102.930983 11.3748555,102.589146 9.35798915,102.042199 C7.34112279,101.495252 5.47811316,100.53811 3.76890438,99.1707428 C3.01685252,98.623796 2.38445475,97.9059391 1.87169212,97.0171505 C1.35892949,96.1283619 1.06836835,95.205403 1,94.2482461 C0.863263298,92.0604589 1.42729373,90.2829084 2.69210823,88.9155414 C3.95692273,87.5481744 5.52937122,86.4884808 7.40950088,85.736429 C9.28963054,84.9843771 11.272283,84.488714 13.3575177,84.2494247 C15.4427524,84.0101355 17.305762,83.8904927 18.9466025,83.8904927 C20.8609163,83.958861 22.7410178,84.0785039 24.5869632,84.2494247 C26.4329087,84.4203456 28.2788265,84.6767231 30.124772,85.0185649 C31.2186656,85.1553016 32.2783592,85.2920362 33.3038844,85.4287729 C34.3294097,85.5655096 35.3549196,85.8047953 36.3804449,86.146637 C38.3631271,86.8303205 39.9526674,86.8986878 41.1491135,86.351741 C42.3455597,85.8047942 43.5932634,84.7451007 44.892262,83.1726286 C46.5331025,81.1899464 47.9859081,79.0705593 49.2507226,76.8144037 C50.5155371,74.5582481 51.7632408,72.3021264 52.9938711,70.0459708 C54.5663432,67.0377633 56.2584345,64.0979683 58.0701958,61.2264976 C59.8819572,58.3550268 61.6765995,55.4494155 63.4541766,52.5095764 C65.0266487,49.911579 66.5478217,47.3307125 68.0177412,44.7668993 C69.4876608,42.2030861 71.1797521,39.7247706 73.0940659,37.3318783 C75.0767481,34.7338809 77.1448597,32.2897491 79.2984628,29.9994093 C81.4520658,27.7090695 83.8278304,25.5384069 86.4258277,23.4873564 C89.9126137,20.8209907 93.6728166,18.8383382 97.7065493,17.5393396 C98.2534961,17.3342345 99.0397204,17.077857 100.065246,16.7701995 C101.090771,16.4625419 102.133373,16.2061644 103.193082,16.0010594 C104.252791,15.7959543 105.278301,15.727587 106.269642,15.7959553 C107.260984,15.8643237 108.030116,16.137793 108.577063,16.6163714 C109.192378,17.2316866 109.431664,17.7786252 109.294927,18.2572037 C109.15819,18.7357821 108.833445,19.1459861 108.320683,19.4878278 C107.80792,19.8296696 107.209706,20.1031389 106.526023,20.308244 C105.842339,20.513349 105.2954,20.6842673 104.88519,20.821004 C103.107613,21.3679508 101.620624,22.2567261 100.424178,23.4873564 C99.2277315,24.7179867 98.0483952,26.0169659 96.8861332,27.3843329 C94.8350826,29.7088569 92.9549812,32.1700806 91.2457724,34.7680779 C89.5365636,37.3660753 87.9128396,40.032401 86.3745517,42.767135 C84.8362638,45.5018691 83.3663663,48.253654 81.9648151,51.0225722 C80.5632639,53.7914904 79.1446419,56.5432753 77.7089065,59.2780093 C76.820118,60.9188497 75.9655264,62.5425737 75.1451062,64.14923 C74.324686,65.7558862 73.4700944,67.3454266 72.5813058,68.9178986 C70.5986237,72.4730529 68.3425019,75.908511 65.8128729,79.2243761 C63.2832439,82.5402411 60.5143672,85.5654953 57.5061598,88.3002293 C57.0959497,88.6420711 56.6344702,89.052275 56.1217076,89.5308535 C55.6089449,90.0094319 55.4209348,90.5563705 55.5576715,91.1716857 C55.6944082,91.7186325 56.121704,92.1630201 56.8395717,92.5048619 C57.5574394,92.8467036 58.1898371,93.0859893 58.7367839,93.222726 C59.8990459,93.7013044 61.0954741,94.0773247 62.3261044,94.3507981 C63.5567348,94.6242715 64.753163,94.9319245 65.9154249,95.2737663 C67.9664755,95.7523447 70.0858626,96.0599977 72.2736498,96.1967344 C74.461437,96.3334711 76.6320996,96.2480119 78.7857027,95.9403544 C80.9393058,95.6326968 83.0245092,95.0857582 85.0413756,94.2995221 C87.0582419,93.5132861 88.8870679,92.4365007 90.5279083,91.0691337 C94.4932727,87.8558212 97.9629145,84.2665366 100.936938,80.3011722 C103.910961,76.3358078 106.491828,72.0286663 108.679615,67.3796184 C109.226562,66.1489881 109.756408,64.9183762 110.269171,63.6877459 C110.781934,62.4571156 111.31178,61.1923201 111.858727,59.8933214 C113.704673,55.1075368 115.054927,50.116722 115.909532,44.9207273 C116.764136,39.7247326 116.815412,34.5629996 116.06336,29.4353732 C115.516413,25.6751139 114.354168,22.0687375 112.576591,18.6161357 C110.799014,15.163534 108.201056,12.4801165 104.782638,10.5658026 C100.270327,8.03617362 95.4504306,6.60045978 90.3228043,6.25861802 C85.1951779,5.91677627 80.1359958,6.22442923 75.1451062,7.18158615 C73.6410025,7.52342791 72.1540131,7.8994482 70.6840936,8.30965831 C69.214174,8.71986841 67.795552,9.19843969 66.428185,9.7453865 C65.1291863,10.2923333 63.8814826,10.8221801 62.6850365,11.3349427 C61.4885903,11.8477054 60.309254,12.4117358 59.146992,13.027051 C54.4979441,15.2832065 50.2933536,18.4110117 46.5330943,22.4105602 C42.7728349,26.4101088 39.7988563,30.7001585 37.611069,35.280838 C36.9273855,36.648205 36.2949878,38.271929 35.7138568,40.1520587 C35.1327258,42.0321883 34.7908892,43.9464735 34.6883366,45.8949715 C34.5857841,47.8434695 34.7908861,49.7064791 35.3036487,51.4840562 C35.8164114,53.2616334 36.8248294,54.6973472 38.3289331,55.7912408 C39.6279318,56.7483978 41.029462,57.3466119 42.5335657,57.5859011 C44.0376694,57.8251903 45.5417506,57.8422821 47.0458543,57.6371771 C48.5499581,57.432072 50.0369474,57.0218681 51.5068669,56.4065529 C52.9767865,55.7912378 54.3270412,55.1075645 55.5576715,54.3555126 C55.9678816,54.1504076 56.4122692,53.7743873 56.8908477,53.2274405 C57.3694261,52.6804937 57.8821811,52.543759 58.4291279,52.8172324 C58.9760747,53.0223375 59.249544,53.3983578 59.249544,53.9453046 C59.249544,54.4922514 59.1811767,54.9708227 59.04444,55.3810328 C58.8393349,56.4749264 58.4120391,57.4149771 57.7625398,58.2012132 C57.1130405,58.9874492 56.3780917,59.6882143 55.5576715,60.3035295 C54.7372513,60.9188446 53.8484761,61.4657832 52.8913191,61.9443617 C51.9341622,62.4229401 51.0112033,62.8673278 50.1224148,63.2775379 C47.7978908,64.4397998 45.3024834,65.4140342 42.6361177,66.2002703 C39.969752,66.9865063 37.33761,67.1403328 34.7396126,66.6617543 C31.7314052,66.1148075 29.1847223,64.8158283 27.0994876,62.7647778 C25.0142529,60.7137273 23.5956309,58.2525035 22.843579,55.3810328 C22.4333689,53.8085607 22.1086241,52.0651939 21.8693349,50.1508801 C21.6300456,48.2365662 21.6471375,46.4931994 21.9206109,44.9207273 C22.6726627,40.5451529 24.2622031,36.477297 26.6892795,32.7170377 C29.116356,28.9567783 31.7655899,25.4700447 34.6370606,22.2567322 C37.235058,19.3852615 40.0039347,16.8043949 42.9437738,14.5140552 C45.8836129,12.2237154 49.1310608,10.2581548 52.6862151,8.61731435 C56.9250529,6.63463216 61.3518372,4.99381634 65.9667009,3.69481767 C70.5815646,2.395819 75.213451,1.4728601 79.8624988,0.925913291 C83.3492848,0.584071534 86.7847429,0.65243886 90.1689763,1.13101732 C93.5532096,1.60959578 96.9544841,2.22490171 100.372902,2.97695357 C103.244372,3.52390038 105.961974,4.27594097 108.525787,5.23309788 C111.0896,6.1902548 113.567916,7.52341765 115.960808,9.23262643 C117.259806,10.1897833 118.473327,11.2494769 119.601404,12.4117389 C120.729482,13.5740008 121.772084,14.770429 122.729241,16.0010594 C124.643555,18.46232 126.130544,21.094462 127.190253,23.8975644 C128.249963,26.7006668 129.019095,29.6404619 129.497674,32.7170377 C130.318094,37.9130324 130.506104,43.1089491 130.06171,48.3049438 C129.617315,53.5009385 128.403795,58.5601206 126.421113,63.4826419 C125.395588,66.1490076 124.182068,68.6956905 122.780517,71.1227669 C121.378966,73.5498434 119.823609,75.9597916 118.1144,78.3526839 C117.635822,79.1047358 117.105975,79.7884091 116.524844,80.4037242 C115.943713,81.0190394 115.379682,81.668529 114.832736,82.3522125 C109.500004,88.300259 103.193118,93.0176045 95.911889,96.5043904 C88.6306596,99.9911763 81.0247947,102.07638 73.0940659,102.760063 C69.6756483,103.033537 66.2743739,103.016445 62.8901405,102.708787 C59.5059071,102.40113 56.173,101.905467 52.8913191,101.221783 C50.9770053,100.811573 49.0627202,100.247543 47.1484063,99.5296748 C45.2340925,98.8118072 43.2856237,98.521246 41.3029415,98.6579827 C39.3886277,98.7947194 37.5768936,99.3074744 35.8676848,100.196263 C34.158476,101.085052 32.3809255,101.768725 30.5349801,102.247303 C28.1420878,102.79425 25.7150477,103.101903 23.2537871,103.170271 C20.7925264,103.23864 18.3654864,103.204456 15.9725941,103.067719 L15.9725941,103.067719 Z M20.5874347,96.7094945 C20.7925397,96.7094945 21.4591212,96.6240353 22.587199,96.4531144 C23.7152768,96.2821935 24.8775213,96.0429079 26.0739674,95.7352503 C27.2704136,95.4275927 28.3130153,95.0515725 29.2018039,94.6071782 C30.0905924,94.1627839 30.4324291,93.7013044 30.227324,93.222726 C30.1589557,93.0176209 29.91967,92.8808863 29.5094599,92.8125179 C29.0992498,92.7441496 28.8257805,92.6757822 28.6890438,92.6074139 C27.5951502,92.2655721 26.5354566,91.9237355 25.5099314,91.5818938 C24.4844061,91.240052 23.4588962,90.8982154 22.4333709,90.5563736 L20.5874347,89.9410615 C19.3568044,89.5992198 17.9552742,89.3599341 16.3828021,89.2231974 C14.81033,89.0864607 13.4429835,89.35993 12.2807216,90.0436135 C11.3235646,90.5905604 10.776626,91.3767846 10.6398893,92.4023099 C10.5031526,93.4278351 10.8449893,94.3166104 11.6654095,95.0686622 C12.554198,95.8207141 13.6138916,96.2651017 14.8445219,96.4018384 C16.0751522,96.5385751 17.2373968,96.6411261 18.3312904,96.7094945 C19.0149739,96.7778628 19.7670145,96.7778628 20.5874347,96.7094945 L20.5874347,96.7094945 Z" id="D"></path>
                <path d="M123.018907,98.789916 C124.249537,98.1973903 125.354809,97.4339552 126.334755,96.4995877 C127.314701,95.5652202 128.23766,94.573894 129.103659,93.5255792 C130.562184,91.7024232 131.95232,89.8451108 133.274108,87.9535864 C134.595896,86.062062 135.826508,84.0908041 136.965981,82.0397535 C137.467349,81.1281755 137.968709,80.2166111 138.470077,79.3050331 C138.971445,78.3934551 139.404438,77.4363125 139.769069,76.4335767 C139.951385,75.841051 140.099514,75.2029559 140.213461,74.5192724 C140.327408,73.8355889 140.179279,73.2202829 139.769069,72.6733361 C139.267701,72.0352315 138.606817,71.8073404 137.786397,71.989656 C136.965977,72.1719716 136.259514,72.4226518 135.666988,72.7417041 C134.026148,73.6532821 132.55625,74.9066831 131.257252,76.5019447 C129.958253,78.0972062 128.761825,79.6468656 127.667931,81.1509694 C127.029827,81.9713896 126.43731,82.8145866 125.890363,83.6805858 C125.343416,84.5465849 124.773688,85.412571 124.181163,86.2785702 C123.588637,87.1445693 123.041698,88.0333445 122.54033,88.9449226 C122.038963,89.8565006 121.537602,90.790854 121.036234,91.748011 C120.853919,92.1582211 120.637422,92.6140033 120.386738,93.1153712 C120.136054,93.6167391 119.919558,94.1408886 119.737242,94.6878354 C119.554926,95.2347822 119.429586,95.7703263 119.361218,96.2944837 C119.29285,96.818641 119.372612,97.3086069 119.600506,97.7643959 C119.965137,98.5392372 120.443709,98.9836248 121.036234,99.0975721 C121.62876,99.2115193 122.289644,99.1089683 123.018907,98.789916 L123.018907,98.789916 Z M213.681255,92.6880894 C212.716432,93.8597372 211.722982,95.050464 210.70088,96.2602997 C209.584197,97.5820878 208.296612,98.6531759 206.838087,99.4735961 C206.382298,99.7014906 205.801176,99.9521708 205.094703,100.225644 C204.38823,100.499118 203.784318,100.476329 203.282951,100.157276 C203.009477,99.9749606 202.872743,99.7242804 202.872743,99.4052281 C202.872743,99.0861758 202.94111,98.7443392 203.077847,98.379708 C203.214583,98.0150768 203.385502,97.6732401 203.590607,97.3541878 C203.795712,97.0351355 203.943841,96.7616662 204.034999,96.5337717 C205.037735,94.5738789 206.199979,92.6595938 207.521767,90.7908588 C208.433345,89.4234918 209.379093,88.0675398 210.35904,86.7229622 C211.338986,85.3783846 212.307523,84.0224326 213.26468,82.6550656 C214.130679,81.4244353 214.871325,80.102667 215.48664,78.689721 C216.101956,77.2767751 216.36403,75.7726939 216.272873,74.1774323 C216.227294,73.3114332 215.976613,72.6049708 215.520824,72.058024 C215.065035,71.5110772 214.506702,71.0894787 213.845808,70.7932158 C213.184914,70.496953 212.467057,70.3146401 211.692216,70.2462717 C210.917375,70.1779034 210.188123,70.2120871 209.50444,70.3488238 C208.456125,70.5767183 207.453404,70.9185549 206.496247,71.3743439 C205.53909,71.8301329 204.604737,72.3542824 203.693159,72.9468081 C203.328527,73.1747027 202.986691,73.4139883 202.667638,73.6646723 C202.348586,73.9153562 202.00675,74.177431 201.642118,74.4509044 C201.414224,74.6787989 201.106571,74.9180845 200.71915,75.1687685 C200.33173,75.4194524 200.069655,75.6815272 199.932918,75.9550006 L200.001286,75.8182646 C200.046865,75.7271068 200.092443,75.6245558 200.138022,75.5106085 C200.183601,75.3966613 200.274757,75.225743 200.411494,74.9978485 C201.596546,72.901219 201.756069,71.3743487 200.89007,70.4171918 C200.798912,70.326034 200.684967,70.2462721 200.54823,70.1779037 C200.411493,70.1095354 200.183602,70.0753517 199.86455,70.0753517 C199.545498,70.0753517 199.089716,70.0981408 198.49719,70.1437197 C197.904664,70.1892986 197.129834,70.257666 196.172678,70.3488238 C195.808046,70.3944027 195.477604,70.4171918 195.181341,70.4171918 C194.885079,70.4171918 194.691371,70.3944027 194.600213,70.3488238 C194.098845,70.2120871 193.73422,70.2804544 193.506325,70.5539278 C193.278431,70.8274012 193.096118,71.1692378 192.959381,71.5794479 C192.822644,71.9896581 192.731488,72.4226511 192.685909,72.8784401 C192.64033,73.3342292 192.571963,73.6988549 192.480805,73.9723283 C192.344068,74.3825384 192.161755,74.7813478 191.933861,75.1687685 C191.705966,75.5561891 191.478075,75.9322094 191.250181,76.2968407 C190.520918,77.3907343 189.825851,78.4960061 189.164956,79.6126892 C188.504062,80.7293722 187.808995,81.8118549 187.079732,82.8601696 C186.585863,83.631841 186.10245,84.4035044 185.629487,85.1751707 C185.535107,85.2399908 185.448789,85.3115292 185.370532,85.389786 C184.869164,85.8911539 184.447565,86.4494871 184.105724,87.0648023 C183.763882,87.6801174 183.387862,88.2840288 182.977652,88.8765545 C182.567441,89.5146592 182.157237,90.1185705 181.747027,90.6883068 C181.336817,91.2580431 180.881035,91.8163762 180.379667,92.3633231 C179.331352,93.6395323 178.24887,94.9385115 177.132187,96.2602997 C176.015504,97.5820878 174.727919,98.6531759 173.269394,99.4735961 C172.813605,99.7014906 172.232483,99.9521708 171.52601,100.225644 C170.819537,100.499118 170.215625,100.476329 169.714258,100.157276 C169.440784,99.9749606 169.304049,99.7242804 169.304049,99.4052281 C169.304049,99.0861758 169.372417,98.7443392 169.509154,98.379708 C169.64589,98.0150768 169.816809,97.6732401 170.021914,97.3541878 C170.227019,97.0351355 170.375148,96.7616662 170.466306,96.5337717 C171.469041,94.5738789 172.631286,92.6595938 173.953074,90.7908588 C174.864652,89.4234918 175.8104,88.0675398 176.790347,86.7229622 C177.770293,85.3783846 178.73883,84.0224326 179.695987,82.6550656 C180.561986,81.4244353 181.302632,80.102667 181.917947,78.689721 C182.533263,77.2767751 182.795337,75.7726939 182.704179,74.1774323 C182.658601,73.3114332 182.40792,72.6049708 181.952131,72.058024 C181.496342,71.5110772 180.938009,71.0894787 180.277115,70.7932158 C179.616221,70.496953 178.898364,70.3146401 178.123523,70.2462717 C177.348681,70.1779034 176.61943,70.2120871 175.935746,70.3488238 C174.887432,70.5767183 173.884711,70.9185549 172.927554,71.3743439 C171.970397,71.8301329 171.036044,72.3542824 170.124466,72.9468081 C169.759834,73.1747027 169.417998,73.4139883 169.098945,73.6646723 C168.779893,73.9153562 168.438057,74.177431 168.073425,74.4509044 C167.845531,74.6787989 167.537878,74.9180845 167.150457,75.1687685 C166.763036,75.4194524 166.500962,75.6815272 166.364225,75.9550006 L166.432593,75.8182646 C166.478172,75.7271068 166.52375,75.6245558 166.569329,75.5106085 C166.614908,75.3966613 166.706064,75.225743 166.842801,74.9978485 C168.027853,72.901219 168.187376,71.3743487 167.321377,70.4171918 C167.230219,70.326034 167.116274,70.2462721 166.979537,70.1779037 C166.8428,70.1095354 166.614909,70.0753517 166.295857,70.0753517 C165.976805,70.0753517 165.521023,70.0981408 164.928497,70.1437197 C164.335971,70.1892986 163.561141,70.257666 162.603984,70.3488238 C162.239353,70.3944027 161.908911,70.4171918 161.612648,70.4171918 C161.316385,70.4171918 161.122678,70.3944027 161.03152,70.3488238 C160.530152,70.2120871 160.165527,70.2804544 159.937632,70.5539278 C159.709738,70.8274012 159.527425,71.1692378 159.390688,71.5794479 C159.253951,71.9896581 159.162795,72.4226511 159.117216,72.8784401 C159.071637,73.3342292 159.00327,73.6988549 158.912112,73.9723283 C158.775375,74.3825384 158.593062,74.7813478 158.365168,75.1687685 C158.137273,75.5561891 157.909382,75.9322094 157.681488,76.2968407 C156.952225,77.3907343 156.257157,78.4960061 155.596263,79.6126892 C154.935369,80.7293722 154.240302,81.8118549 153.511039,82.8601696 C152.781777,83.9996422 152.075314,85.1390976 151.391631,86.2785702 C151.088407,86.7839438 150.780702,87.2937968 150.468514,87.8081322 C150.234394,88.1238108 149.995155,88.4343725 149.750799,88.7398185 C149.021536,89.6513965 148.269496,90.5629609 147.494654,91.4745389 C146.583076,92.5228537 145.671512,93.5255745 144.759934,94.4827314 C143.848356,95.4398883 142.891213,96.3970309 141.888477,97.3541878 C141.706162,97.4909245 141.455482,97.6960265 141.136429,97.9694999 C140.817377,98.2429733 140.47554,98.5050481 140.110909,98.755732 C139.746278,99.006416 139.381652,99.1887289 139.017021,99.3026761 C138.65239,99.4166234 138.333342,99.4052288 138.059869,99.2684921 C137.695238,99.0861765 137.512925,98.8127072 137.512925,98.448076 C137.512925,98.0834448 137.558503,97.7643972 137.649661,97.4909238 C138.014292,95.8956623 138.652387,94.3915811 139.563965,92.9786352 C140.475543,91.5656892 141.341529,90.1983427 142.161949,88.8765545 C142.57216,88.2384499 142.959574,87.6003549 143.324206,86.9622503 C143.688837,86.3241456 144.053463,85.6860506 144.418094,85.047946 C145.694303,82.8601587 146.947704,80.6837988 148.178334,78.518801 C149.408965,76.3538032 150.730733,74.2230215 152.143679,72.126392 C152.234837,71.9896553 152.348782,71.8073425 152.485519,71.5794479 C152.622256,71.3515534 152.736201,71.1350569 152.827359,70.9299518 C152.918517,70.7248468 152.941306,70.5083503 152.895727,70.2804557 C152.850148,70.0525612 152.713413,69.8702484 152.485519,69.7335117 C152.120888,69.5056172 151.756262,69.4714335 151.391631,69.6309597 C151.027,69.7904858 150.662374,69.8702477 150.297743,69.8702477 C149.522901,69.9158266 148.713888,69.9158266 147.870678,69.8702477 C147.027469,69.8246688 146.264033,69.9386143 145.58035,70.2120877 C145.033403,70.4399822 144.623199,70.7818189 144.349726,71.2376079 C144.258568,71.3287657 144.08765,71.5680513 143.836966,71.955472 C143.586282,72.3428927 143.483731,72.5821783 143.52931,72.6733361 C143.164678,72.1719682 142.857025,71.6478187 142.606341,71.1008719 C142.355658,70.5539251 141.91127,70.1892993 141.273165,70.0069837 C140.862955,69.870247 140.441357,69.7790906 140.008357,69.7335117 C139.575358,69.6879328 139.153759,69.6423545 138.743549,69.5967756 C137.831971,69.5967756 136.95459,69.7562994 136.11138,70.0753517 C135.268171,70.394404 134.436368,70.7134516 133.615948,71.0325039 C132.613212,71.3971351 131.667464,71.8301281 130.778676,72.3314961 C129.889887,72.832864 129.012506,73.3570135 128.146507,73.9039603 C127.553982,74.3141704 126.984254,74.7243744 126.437307,75.1345845 C125.89036,75.5447946 125.366211,75.9777877 124.864843,76.4335767 C123.041687,78.0288382 121.42366,79.7608105 120.010714,81.6295455 C118.597768,83.4982804 117.276,85.4581438 116.045369,87.5091943 C115.224949,88.9221403 114.564065,90.3806432 114.062697,91.884747 C113.698066,93.0697984 113.447386,94.2092539 113.310649,95.3031475 C113.219491,96.0324099 113.185308,96.8186342 113.208097,97.6618439 C113.230886,98.5050535 113.356227,99.3140669 113.584121,100.088908 C113.812016,100.86375 114.165247,101.558817 114.643825,102.174133 C115.122404,102.789448 115.771893,103.233835 116.592314,103.507309 C116.592314,103.507309 116.637892,103.530098 116.72905,103.575677 C117.777364,103.84915 118.871242,103.837756 120.010714,103.541493 C121.150187,103.24523 122.175697,102.823631 123.087275,102.276685 C124.864852,101.273949 126.460089,100.020548 127.873035,98.516444 C128.192088,98.1518128 128.499741,97.8099761 128.796003,97.4909238 C129.092266,97.1718715 129.422708,96.852824 129.78734,96.5337717 C129.969655,96.3514561 130.163363,96.1349596 130.368468,95.8842756 C130.573573,95.6335916 130.790069,95.4854624 131.017964,95.4398835 C131.063543,95.667778 131.040754,95.8956691 130.949596,96.1235636 C130.858438,96.3514581 130.767281,96.5793492 130.676124,96.8072437 C130.448229,97.8099796 130.436835,98.8354895 130.64194,99.8838042 C130.847045,100.932119 131.337011,101.820894 132.111852,102.550157 C132.932272,103.370577 133.843836,103.757992 134.846572,103.712413 C135.849308,103.666834 136.852029,103.404759 137.854765,102.926181 C138.857501,102.447602 139.803249,101.832296 140.692037,101.080244 C141.580826,100.328193 142.321472,99.6331247 142.913998,98.9950201 C143.699263,98.1684251 144.475148,97.3324723 145.241673,96.4871411 C144.247799,98.1431925 143.130075,99.7083995 141.888477,101.182796 C141.523846,101.593007 141.330139,102.026 141.307349,102.481789 C141.28456,102.937578 141.387111,103.302203 141.615005,103.575677 C141.751742,103.666835 142.013817,103.723807 142.401237,103.746597 C142.788658,103.769386 143.711617,103.780781 145.170142,103.780781 C145.625931,103.780781 146.070318,103.792175 146.503318,103.814965 C146.936318,103.837754 147.380705,103.82636 147.836494,103.780781 C148.292283,103.735202 148.679698,103.587073 148.99875,103.336389 C149.317803,103.085705 149.591272,102.778052 149.819167,102.413421 C150.730745,101.18279 151.61952,99.9293892 152.485519,98.65318 C153.351518,97.3769708 154.217504,96.0779916 155.083503,94.7562034 C156.405291,92.7051529 157.670087,90.6655276 158.877928,88.6372665 C160.085769,86.6090054 161.487299,84.6833257 163.082561,82.8601696 L165.338705,80.1938172 C166.022388,79.4189759 166.728851,78.6555408 167.458113,77.9034889 C168.187376,77.151437 168.984994,76.4563692 169.850994,75.8182646 C170.033309,75.6815279 170.352357,75.4536368 170.808146,75.1345845 C171.263935,74.8155322 171.731111,74.5534574 172.20969,74.3483524 C172.688268,74.1432473 173.144051,74.0406963 173.57705,74.0406963 C174.01005,74.0406963 174.340492,74.2685874 174.568386,74.7243764 C174.796281,75.2257443 174.81907,75.7612884 174.636754,76.3310247 C174.454439,76.9007609 174.180969,77.4590941 173.816338,78.0060409 C173.451707,78.5529877 173.064292,79.0771372 172.654082,79.5785051 C172.243872,80.0798731 171.902035,80.5356552 171.628562,80.9458654 C171.036036,81.8574434 170.443519,82.7690077 169.850994,83.6805858 C169.258468,84.5921638 168.665951,85.5037281 168.073425,86.4153062 C167.025111,87.9194099 166.010995,89.4348857 165.031049,90.9617789 C164.051102,92.4886721 163.173722,94.0953042 162.39888,95.7817236 C162.125407,96.4198282 161.886121,97.0807124 161.681016,97.7643959 C161.475911,98.4480794 161.361966,99.1431472 161.339176,99.8496202 C161.316387,100.556093 161.407543,101.228372 161.612648,101.866476 C161.817753,102.504581 162.216563,103.097098 162.809088,103.644045 C163.17372,103.963097 163.618107,104.190988 164.142265,104.327725 C164.666422,104.464462 165.201966,104.555618 165.748913,104.601197 C167.435332,104.692355 169.110332,104.350518 170.773962,103.575677 C172.437592,102.800835 173.907489,101.889271 175.183698,100.840956 C175.78592,100.346826 176.371136,99.8330808 176.939349,99.2997186 C176.466634,99.9430612 175.972575,100.570753 175.45717,101.182796 C175.092539,101.593007 174.898832,102.026 174.876042,102.481789 C174.853253,102.937578 174.955804,103.302203 175.183698,103.575677 C175.320435,103.666835 175.58251,103.723807 175.96993,103.746597 C176.357351,103.769386 177.28031,103.780781 178.738835,103.780781 C179.194624,103.780781 179.639012,103.792175 180.072011,103.814965 C180.505011,103.837754 180.949398,103.82636 181.405187,103.780781 C181.860976,103.735202 182.248391,103.587073 182.567443,103.336389 C182.886496,103.085705 183.159965,102.778052 183.38786,102.413421 C184.299438,101.18279 185.188213,99.9293892 186.054212,98.65318 C186.920211,97.3769708 187.786197,96.0779916 188.652196,94.7562034 C189.973985,92.7051529 191.23878,90.6655276 192.446621,88.6372665 C193.654462,86.6090054 195.055992,84.6833257 196.651254,82.8601696 L198.907398,80.1938172 C199.591081,79.4189759 200.297544,78.6555408 201.026806,77.9034889 C201.756069,77.151437 202.553687,76.4563692 203.419687,75.8182646 C203.602002,75.6815279 203.92105,75.4536368 204.376839,75.1345845 C204.832628,74.8155322 205.299804,74.5534574 205.778383,74.3483524 C206.256961,74.1432473 206.712744,74.0406963 207.145743,74.0406963 C207.578743,74.0406963 207.909185,74.2685874 208.137079,74.7243764 C208.364974,75.2257443 208.387763,75.7612884 208.205447,76.3310247 C208.023132,76.9007609 207.749662,77.4590941 207.385031,78.0060409 C207.0204,78.5529877 206.632985,79.0771372 206.222775,79.5785051 C205.812565,80.0798731 205.470728,80.5356552 205.197255,80.9458654 C204.604729,81.8574434 204.012212,82.7690077 203.419687,83.6805858 C202.827161,84.5921638 202.234644,85.5037281 201.642118,86.4153062 C200.593804,87.9194099 199.579688,89.4348857 198.599742,90.9617789 C197.619795,92.4886721 196.742415,94.0953042 195.967573,95.7817236 C195.6941,96.4198282 195.454814,97.0807124 195.249709,97.7643959 C195.044604,98.4480794 194.930659,99.1431472 194.907869,99.8496202 C194.88508,100.556093 194.976236,101.228372 195.181341,101.866476 C195.386446,102.504581 195.785256,103.097098 196.377782,103.644045 C196.742413,103.963097 197.1868,104.190988 197.710958,104.327725 C198.235115,104.464462 198.770659,104.555618 199.317606,104.601197 C201.004025,104.692355 202.679025,104.350518 204.342655,103.575677 C206.006285,102.800835 207.476182,101.889271 208.752391,100.840956 C209.900487,99.8989294 210.986778,98.885612 212.011278,97.8009908 C211.99051,98.2759777 211.998102,98.7651418 212.034056,99.2684921 C212.079635,99.9065967 212.204975,100.521903 212.41008,101.114428 C212.615185,101.706954 212.922838,102.231104 213.333048,102.686893 C213.743258,103.142682 214.267408,103.461729 214.905512,103.644045 C216.090564,104.008676 217.343965,104.088438 218.665753,103.883333 C219.987541,103.678228 221.172575,103.302207 222.220889,102.755261 C223.132467,102.253893 223.884508,101.615798 224.477034,100.840956 C225.069559,100.066115 225.776022,99.42802 226.596442,98.9266521 C226.642021,98.8810732 226.642021,99.0064132 226.596442,99.3026761 C226.550863,99.598939 226.528074,99.7698573 226.528074,99.8154362 C226.117864,101.000488 225.559531,102.105759 224.853058,103.131285 C224.146585,104.15681 223.451517,105.193714 222.767834,106.242029 C221.719519,107.746133 220.67122,109.227425 219.622905,110.68595 C218.57459,112.144475 217.457924,113.580189 216.272873,114.993134 C215.862662,115.494502 215.429669,115.984468 214.97388,116.463047 C214.518091,116.941625 214.03952,117.408802 213.538152,117.864591 C212.900048,118.457117 212.193585,119.049633 211.418744,119.642159 C210.643902,120.234685 209.823495,120.770229 208.957495,121.248807 C208.091496,121.727386 207.191327,122.103406 206.256959,122.37688 C205.322592,122.650353 204.399633,122.787088 203.488055,122.787088 C202.895529,122.787088 202.166277,122.695931 201.300278,122.513616 C200.434279,122.3313 199.91013,121.875518 199.727814,121.146255 C199.591077,120.599309 199.727812,120.029581 200.138022,119.437055 C200.548232,118.844529 200.798912,118.297591 200.89007,117.796223 C201.072386,117.06696 200.981229,116.406076 200.616598,115.813551 C200.251967,115.221025 199.750607,114.765243 199.112502,114.44619 C198.200924,113.990401 197.334938,113.922034 196.514518,114.241086 C195.694097,114.560139 195.010424,115.084288 194.463477,115.813551 C193.91653,116.542813 193.574694,117.374615 193.437957,118.308983 C193.30122,119.24335 193.437955,120.097942 193.848165,120.872783 C194.167217,121.465309 194.566027,122.035037 195.044605,122.581984 C195.523184,123.12893 196.081517,123.516345 196.719622,123.74424 L196.719622,123.607504 C196.719622,123.74424 196.913329,123.869581 197.30075,123.983528 C197.68817,124.097475 198.121163,124.200026 198.599742,124.291184 C199.07832,124.382342 199.545497,124.462104 200.001286,124.530472 C200.457075,124.59884 200.730544,124.633024 200.821702,124.633024 C201.550965,124.724182 202.268822,124.758365 202.975295,124.735576 C203.681768,124.712786 204.376835,124.655814 205.060519,124.564656 C206.519044,124.427919 207.931968,124.177239 209.299335,123.812608 C210.666703,123.447977 212.01126,123.014984 213.333048,122.513616 C215.384099,121.693195 217.252806,120.690475 218.939225,119.505423 C220.625644,118.320372 222.198093,116.998603 223.656618,115.540079 C225.115142,114.081554 226.471094,112.497711 227.724514,110.788502 C228.977934,109.079293 230.174362,107.335926 231.313835,105.558349 C231.951939,104.510034 232.567245,103.438946 233.159771,102.345053 C233.752297,101.251159 234.367603,100.157282 235.005707,99.0633881 C235.73497,97.7415999 236.521194,96.4654098 237.364404,95.2347795 C238.207613,94.0041492 239.039416,92.7735373 239.859836,91.5429069 C240.680256,90.2211188 241.477875,88.8993505 242.252716,87.5775623 C243.027558,86.2557742 243.802387,84.9340059 244.577229,83.6122178 L247.243581,79.0999291 C247.69937,78.3706667 248.143758,77.6642043 248.576757,76.9805208 C249.009757,76.2968372 249.454145,75.5903749 249.909934,74.8611124 C250.274565,74.3597445 250.559429,73.7900168 250.764534,73.1519122 C250.969639,72.5138076 251.07219,71.8757125 251.07219,71.2376079 C251.07219,70.6450822 250.935455,70.2576673 250.661982,70.0753517 C250.388508,69.8930361 249.978304,69.8246688 249.431358,69.8702477 C248.565358,69.9614055 247.722161,70.0069837 246.901741,70.0069837 C246.081321,70.0069837 245.260913,70.0297728 244.440493,70.0753517 C243.847967,70.1209306 243.369396,70.2462707 243.004765,70.4513758 C242.640133,70.6564808 242.366664,71.0552902 242.184348,71.647816 C241.774138,73.3798142 241.124649,75.02063 240.23586,76.5703127 C239.347072,78.1199953 238.446902,79.6468656 237.535324,81.1509694 C236.578167,82.7462309 235.586841,84.3186794 234.561315,85.8683621 C233.53579,87.4180447 232.498886,88.944915 231.450571,90.4490188 C230.812466,91.3605968 230.174371,92.2037938 229.536267,92.9786352 C228.624688,94.0269499 227.67894,95.1094326 226.698994,96.2261156 C225.719048,97.3427987 224.590987,98.2201794 223.314778,98.858284 C222.767831,99.1317574 222.232287,99.2798867 221.708129,99.3026761 C221.183972,99.3254656 220.750979,99.2343091 220.409137,99.0292041 C220.067295,98.824099 219.850799,98.4936569 219.759641,98.0378679 C219.668483,97.5820789 219.75964,97.0123512 220.033113,96.3286677 C220.352165,95.4170896 220.773764,94.5738926 221.297921,93.7990513 C221.822079,93.02421 222.334834,92.2493803 222.836202,91.4745389 C223.383148,90.5629609 223.930087,89.640002 224.477034,88.7056345 C225.023981,87.771267 225.593708,86.8483081 226.186234,85.9367301 C227.280128,84.0679951 228.396794,82.2334719 229.536267,80.4331053 C230.675739,78.6327387 231.815195,76.8210045 232.954667,74.9978485 C233.319298,74.3597438 233.695319,73.7216488 234.082739,73.0835442 C234.47016,72.4454395 234.549922,71.7389772 234.322027,70.9641359 C234.139712,70.3260312 233.797875,69.9614055 233.296507,69.8702477 C232.795139,69.7790899 232.248201,69.7790899 231.655675,69.8702477 C231.01757,69.9158266 230.39087,69.8930375 229.775555,69.8018797 C229.160239,69.7107219 228.533539,69.7107219 227.895434,69.8018797 C227.348487,69.8930375 226.915494,70.0981395 226.596442,70.4171918 C226.27739,70.7362441 226.02671,71.1122644 225.844394,71.5452639 C225.662078,71.9782635 225.502555,72.4340457 225.365818,72.9126241 C225.229081,73.3912026 225.069557,73.8355902 224.887242,74.2458003 C224.112401,75.8410619 223.269203,77.3793267 222.357625,78.860641 C221.446047,80.3419553 220.511694,81.8118529 219.554537,83.2703777 C218.59738,84.7289025 217.640238,86.1874055 216.683081,87.6459304 C215.725924,89.1044552 214.837148,90.5857473 214.016728,92.089851 C213.901278,92.2892644 213.789454,92.4886771 213.681255,92.6880894 Z" id="anny"></path>
                <path d="M236.546959,51.4025252 C236.519612,51.4345397 236.4938,51.4696227 236.469522,51.5077743 C236.414637,51.5940219 236.371514,51.6606667 236.340151,51.7077109 C236.120612,52.0527012 235.885395,52.3820052 235.634493,52.6956327 C235.383591,53.0092602 235.124852,53.3228831 234.858268,53.6365106 C234.544641,53.9971823 234.231018,54.3421674 233.91739,54.6714764 C233.603763,55.0007853 233.274459,55.3300893 232.929469,55.6593982 C232.866743,55.7064423 232.780497,55.7770075 232.670727,55.8710957 C232.560957,55.965184 232.443349,56.0553506 232.317898,56.1415982 C232.192447,56.2278457 232.066998,56.2905703 231.941547,56.3297737 C231.816096,56.3689772 231.706328,56.3650569 231.612239,56.3180128 C231.486788,56.2552873 231.424064,56.1612004 231.424064,56.0357494 C231.424064,55.9102984 231.439745,55.8005304 231.471108,55.7064421 C231.596559,55.1575939 231.816095,54.6401162 232.129722,54.1539935 C232.44335,53.6678708 232.741292,53.1974365 233.023556,52.7426766 C233.164689,52.5231373 233.297978,52.3036013 233.423429,52.084062 C233.54888,51.8645228 233.67433,51.6449868 233.799781,51.4254475 C234.238859,50.6727414 234.670091,49.9239668 235.093488,49.1791014 C235.516885,48.434236 235.971638,47.7011426 236.457761,46.9797992 C236.489124,46.9327551 236.528326,46.8700305 236.575371,46.7916236 C236.622415,46.7132167 236.661618,46.6387313 236.69298,46.5681651 C236.724343,46.4975989 236.732184,46.4231135 236.716502,46.3447066 C236.700821,46.2662997 236.653777,46.2035751 236.575371,46.156531 C236.44992,46.0781241 236.32447,46.0663633 236.199019,46.1212481 C236.073568,46.1761329 235.948119,46.2035749 235.822668,46.2035749 C235.556085,46.2192563 235.277745,46.2192563 234.987639,46.2035749 C234.697534,46.1878935 234.434874,46.2270964 234.199654,46.3211847 C234.011477,46.3995915 233.870347,46.5172001 233.776259,46.6740139 C233.744896,46.7053766 233.686092,46.7877026 233.599844,46.9209943 C233.513597,47.054286 233.478314,47.136612 233.493995,47.1679748 C233.368544,46.9954796 233.262697,46.8151465 233.176449,46.62697 C233.090201,46.4387935 232.93731,46.3133443 232.717771,46.2506188 C232.576639,46.2035747 232.431588,46.1722124 232.282615,46.156531 C232.133642,46.1408496 231.988591,46.1251685 231.847459,46.1094871 C231.533831,46.1094871 231.231969,46.1643711 230.941864,46.2741408 C230.651758,46.3839104 230.365578,46.4936784 230.083313,46.603448 C229.738322,46.7288991 229.412939,46.8778699 229.107152,47.0503651 C228.801365,47.2228602 228.499503,47.4031933 228.201557,47.5913699 C227.997699,47.7325023 227.801685,47.8736325 227.613508,48.0147649 C227.425332,48.1558973 227.244999,48.3048682 227.072503,48.461682 C226.445248,49.0105302 225.888568,49.6064136 225.402445,50.2493501 C224.916322,50.8922865 224.461569,51.5665756 224.038172,52.2722376 C223.755907,52.7583603 223.528531,53.2601569 223.356036,53.7776423 C223.230584,54.1853581 223.144338,54.5773867 223.097294,54.9537398 C223.065931,55.2046418 223.05417,55.4751415 223.062011,55.765247 C223.069852,56.0553525 223.112975,56.3336927 223.191382,56.6002762 C223.269789,56.8668596 223.391318,57.105997 223.555972,57.3176956 C223.720627,57.5293942 223.944083,57.6822853 224.226348,57.7763736 L224.273391,57.7998955 C224.634063,57.8939838 225.010411,57.8900635 225.402445,57.7881346 C225.794479,57.6862056 226.147305,57.541155 226.460933,57.3529785 C227.072506,57.0079882 227.621346,56.5767568 228.107469,56.0592713 C228.217239,55.9338203 228.323086,55.8162117 228.425015,55.7064421 C228.526944,55.5966725 228.640633,55.4869045 228.766084,55.3771348 C228.828809,55.3144093 228.895454,55.2399239 228.96602,55.1536763 C229.036586,55.0674287 229.111072,55.016465 229.189479,55.0007837 C229.20516,55.0791905 229.19732,55.1575963 229.165957,55.2360031 C229.134594,55.31441 229.103232,55.3928157 229.071869,55.4712226 C228.993462,55.8162129 228.989542,56.1690386 229.060108,56.5297103 C229.130674,56.890382 229.299246,57.1961643 229.56583,57.4470663 C229.848095,57.7293311 230.161718,57.8626208 230.506708,57.8469394 C230.851698,57.831258 231.196683,57.7410915 231.541674,57.576437 C231.886664,57.4117826 232.212048,57.2000871 232.517834,56.9413444 C232.823621,56.6826017 233.07844,56.4434643 233.282298,56.223925 C233.580244,55.9102974 233.874265,55.5927543 234.164371,55.2712861 C234.454476,54.9498178 234.740657,54.6244341 235.022922,54.2951252 C235.148373,54.1539928 235.269902,54.0128625 235.387512,53.8717301 C235.414332,53.8395467 235.440947,53.8069556 235.467359,53.7739568 C235.303387,54.2466493 235.194446,54.7222335 235.140532,55.2007202 C235.077806,55.7574091 235.13269,56.2709665 235.305185,56.7414078 C235.47768,57.2118492 235.846187,57.5568343 236.410717,57.7763736 C236.6773,57.8704618 236.987003,57.8939836 237.339834,57.8469394 C237.692665,57.7998953 238.002367,57.713649 238.268951,57.588198 C238.425765,57.5097911 238.574735,57.4274651 238.715868,57.3412175 C238.857,57.25497 238.998131,57.1648034 239.139263,57.0707151 C239.343121,56.9452641 239.531295,56.7962933 239.70379,56.6237981 C239.860603,56.4983471 240.009574,56.4042602 240.150707,56.3415347 C240.213432,56.3258533 240.189911,56.4160199 240.080141,56.6120371 C239.970371,56.8080543 239.825321,57.0432715 239.644985,57.3176956 C239.464649,57.5921197 239.276475,57.8783005 239.080458,58.1762467 C238.884441,58.4741929 238.73155,58.7250911 238.62178,58.9289491 C238.151339,59.7286993 237.653462,60.5127564 237.128136,61.2811439 C236.60281,62.0495314 235.963804,62.7238205 235.211098,63.3040315 C234.991558,63.4765266 234.728899,63.6529395 234.423112,63.8332753 C234.117325,64.0136112 233.799782,64.162582 233.470473,64.2801923 C233.141164,64.3978027 232.81186,64.4605272 232.482552,64.4683679 C232.153243,64.4762086 231.83962,64.4017232 231.541674,64.2449094 C231.478948,64.2135467 231.404463,64.1625829 231.318215,64.0920168 C231.231967,64.0214506 231.161402,63.9469651 231.106518,63.8685582 C231.051633,63.7901514 231.01635,63.7039051 231.000669,63.6098168 C230.984987,63.5157285 231.02419,63.4294823 231.118279,63.3510754 C231.337818,63.1472175 231.447586,62.9316018 231.447586,62.7042218 C231.447586,62.4768418 231.377021,62.272987 231.235888,62.0926511 C231.094756,61.9123153 230.906582,61.7751053 230.671361,61.681017 C230.436141,61.5869288 230.200924,61.5712476 229.965703,61.6339731 C229.58935,61.7437428 229.322771,61.9397571 229.165957,62.2220218 C229.009143,62.5042866 228.938578,62.8100689 228.954259,63.1393778 C228.969941,63.4686868 229.067948,63.7823096 229.248284,64.0802558 C229.428619,64.3782019 229.675597,64.5977379 229.989225,64.7388703 C230.318534,64.8956841 230.639997,65.0054521 230.953625,65.0681776 C231.847463,65.2720355 232.75697,65.2681152 233.682171,65.0564166 C234.607372,64.844718 235.469835,64.5350155 236.269585,64.1272997 C236.834115,63.8293535 237.363353,63.4804481 237.857317,63.080573 C238.35128,62.6806978 238.813874,62.2455461 239.245112,61.7751048 C239.67635,61.3046635 240.084059,60.8107075 240.468253,60.2932221 C240.852447,59.7757366 241.217033,59.2582589 241.562024,58.7407735 C241.828607,58.3644204 242.075585,57.988073 242.302965,57.6117199 C242.530345,57.2353669 242.769482,56.8590195 243.020384,56.4826664 C243.271286,56.090632 243.518264,55.706444 243.761326,55.3300909 C244.004387,54.9537379 244.243525,54.5695499 244.478745,54.1775155 C244.933505,53.4875348 245.376497,52.8014849 245.807735,52.119345 C246.238973,51.437205 246.666284,50.7433145 247.089682,50.0376525 C247.262177,49.7553877 247.434669,49.4731272 247.607164,49.1908624 C247.77966,48.9085976 247.975674,48.6341776 248.195213,48.3675942 C248.367708,48.1480549 248.548041,47.9128378 248.736218,47.6619357 C248.924394,47.4110337 249.018481,47.1287731 249.018481,46.8151456 C249.018481,46.6583318 248.967518,46.5446435 248.865589,46.4740773 C248.76366,46.4035111 248.642131,46.3564677 248.500998,46.3329456 C248.359866,46.3094236 248.210895,46.3055033 248.054081,46.3211847 C247.897268,46.336866 247.763978,46.3447066 247.654208,46.3447066 C247.387625,46.360388 247.109285,46.38783 246.819179,46.4270334 C246.529074,46.4662369 246.289936,46.5956063 246.10176,46.8151456 C246.086078,46.8308269 246.054716,46.8700298 246.007672,46.9327553 C245.960628,46.9954808 245.909664,47.0503648 245.854779,47.097409 C245.799894,47.1444531 245.752851,47.1718951 245.713648,47.1797358 C245.674444,47.1875765 245.647002,47.1522939 245.631321,47.073887 C245.584277,46.8073036 245.454907,46.6191299 245.243209,46.5093602 C245.03151,46.3995906 244.788452,46.3329457 244.514028,46.3094237 C244.239604,46.2859016 243.961264,46.2859016 243.678999,46.3094237 C243.396734,46.3329457 243.169358,46.3525472 242.996863,46.3682285 C242.573465,46.4152727 242.161835,46.5211204 241.76196,46.6857749 C241.362085,46.8504293 240.977897,47.0503639 240.609385,47.2855845 C240.240872,47.5208052 239.888047,47.7834643 239.550897,48.0735698 C239.213747,48.3636753 238.896204,48.6498561 238.598258,48.9321209 C238.096454,49.4025623 237.637781,49.9004385 237.222224,50.4257647 C236.976588,50.7362858 236.7515,51.0618715 236.546959,51.4025252 Z M197.739891,57.679485 C197.495294,57.7584485 197.248563,57.8181866 196.999692,57.8587004 C196.662543,57.9135852 196.313637,57.9175055 195.952965,57.8704614 C195.54525,57.8390986 195.168902,57.72149 194.823912,57.5176321 C194.369152,57.2510487 194.06337,56.9139042 193.906556,56.5061884 C193.749742,56.0984725 193.683097,55.6633208 193.706619,55.2007202 C193.722286,54.8926056 193.765779,54.5844941 193.837098,54.2763816 C193.59181,54.5573178 193.34054,54.8340676 193.083288,55.1066324 C192.42467,55.8044537 191.7347,56.4591414 191.013356,57.0707151 C190.840861,57.2275289 190.656608,57.3568983 190.460591,57.4588273 C190.264573,57.5607562 190.048958,57.6352417 189.813737,57.6822858 C189.547154,57.7293299 189.257052,57.7450111 188.943425,57.7293297 C188.629797,57.7136483 188.363218,57.5960397 188.143679,57.3765005 C187.986865,57.2196867 187.877097,57.031513 187.814371,56.8119737 C187.751646,56.5924344 187.720284,56.3728984 187.720284,56.1533591 C187.720284,56.1219964 187.728124,56.0396704 187.743805,55.9063787 C187.759487,55.773087 187.775168,55.635877 187.790849,55.4947446 C187.806531,55.3536122 187.822212,55.2242428 187.837893,55.1066324 C187.853575,54.9890221 187.861415,54.9302178 187.861415,54.9302178 C187.814371,54.9302178 187.775168,54.9615801 187.743805,55.0243056 C187.728124,55.0556684 187.688921,55.1066321 187.626196,55.1771983 C187.56347,55.2477645 187.492905,55.3222499 187.414498,55.4006568 C187.179278,55.6672402 186.94014,55.9298993 186.697079,56.1886421 C186.454017,56.4473848 186.195279,56.6904425 185.920854,56.9178225 C185.64643,57.1452024 185.356329,57.3412167 185.050542,57.5058712 C184.744755,57.6705256 184.403691,57.7842139 184.027338,57.8469394 C183.760754,57.8939836 183.470653,57.9018241 183.157025,57.8704614 C182.467045,57.7450104 182.020132,57.4313875 181.816274,56.9295834 C181.612417,56.4277794 181.553612,55.8671785 181.63986,55.2477641 C181.726107,54.6283497 181.890759,54.0128649 182.133821,53.4012912 C182.376882,52.7897174 182.600338,52.2957615 182.804196,51.9194084 C183.306,51.0098885 183.945007,50.1631068 184.721235,49.379038 C185.497463,48.5949691 186.308962,47.9128394 187.155757,47.3326284 C187.406659,47.1601333 187.7046,46.9798002 188.049591,46.7916236 C188.394581,46.6034471 188.751327,46.450556 189.119839,46.3329456 C189.488352,46.2153353 189.856859,46.1526107 190.225371,46.14477 C190.593883,46.1369293 190.927108,46.2349365 191.225054,46.4387944 C191.366186,46.5328827 191.483795,46.6112884 191.577883,46.6740139 C191.671971,46.7367394 191.758218,46.7681017 191.836624,46.7681017 C191.915031,46.7681017 191.993437,46.7328191 192.071844,46.6622529 C192.150251,46.5916867 192.252178,46.4779984 192.377629,46.3211847 C192.597169,46.0389199 192.793183,45.7370579 192.965678,45.4155896 C193.138173,45.0941214 193.310666,44.7765783 193.483161,44.4629507 C193.765426,43.9611466 194.051607,43.4554298 194.341712,42.945785 C194.631817,42.4361403 194.925839,41.9304234 195.223785,41.4286194 C195.380599,41.1620359 195.541331,40.9032971 195.705985,40.6523951 C195.870639,40.401493 196.01569,40.1349136 196.141141,39.8526488 C196.203867,39.7271978 196.25483,39.5978284 196.294034,39.4645367 C196.333237,39.331245 196.36852,39.1861944 196.399883,39.0293806 C196.415564,38.919611 196.419484,38.7980821 196.411643,38.6647904 C196.403803,38.5314987 196.439085,38.4178104 196.517492,38.3237222 C196.627262,38.1982711 196.760552,38.1159451 196.917365,38.0767417 C197.074179,38.0375383 197.242751,38.0140165 197.423087,38.0061759 C197.603423,37.9983352 197.779836,38.0022555 197.952331,38.0179368 C198.124826,38.0336182 198.281638,38.0257776 198.42277,37.9944149 C198.657991,37.9473707 198.885367,37.9160085 199.104907,37.9003271 C199.324446,37.8846457 199.465576,38.0414571 199.528302,38.3707661 C199.575346,38.6059867 199.567505,38.8412039 199.50478,39.0764245 C199.442054,39.3116452 199.351888,39.542942 199.234277,39.770322 C199.116667,39.997702 198.987298,40.2133177 198.846165,40.4171756 C198.705033,40.6210335 198.563902,40.8170478 198.42277,41.0052243 C198.109143,41.4443029 197.819041,41.899056 197.552458,42.3694973 C197.285875,42.8399386 197.019295,43.3103729 196.752712,43.7808142 C196.313633,44.6119272 195.8628,45.4234263 195.4002,46.2153359 C194.937599,47.0072454 194.455404,47.7952228 193.9536,48.5792917 C193.451796,49.379042 192.981362,50.1827005 192.542283,50.9902914 C192.103204,51.7978824 191.656292,52.6015409 191.201532,53.4012912 C191.013355,53.7149187 190.840863,54.0324618 190.684049,54.3539301 C190.527235,54.6753983 190.386105,55.0086226 190.260654,55.3536129 C190.182247,55.5417894 190.135204,55.7299631 190.119522,55.9181396 C190.119522,56.0749534 190.178327,56.1611997 190.295937,56.1768811 C190.413547,56.1925625 190.535076,56.1847219 190.660527,56.1533591 C191.021199,56.0279081 191.334822,55.8358141 191.601405,55.5770714 C191.867988,55.3183287 192.134568,55.0556695 192.401151,54.7890861 C192.667735,54.5068213 192.938234,54.228481 193.212658,53.9540569 C193.487083,53.6796328 193.757582,53.3856114 194.024166,53.0719839 C194.18478,52.884601 194.33968,52.6886525 194.488869,52.4841343 C194.905216,51.5474167 195.420685,50.6731261 196.035292,49.8612379 C196.670388,49.0222842 197.434844,48.2891908 198.328682,47.6619357 C198.87753,47.2699013 199.477334,46.936677 200.128111,46.6622529 C200.778889,46.3878288 201.441417,46.211416 202.115716,46.1330091 C202.852741,46.0546022 203.331016,46.2192542 203.550555,46.62697 C203.785776,47.0503672 203.887703,47.4619972 203.85634,47.8618723 C203.824977,48.2617474 203.703449,48.6380948 203.49175,48.9909258 C203.280051,49.3437568 202.997791,49.6730608 202.64496,49.9788476 C202.292129,50.2846345 201.915781,50.5668951 201.515906,50.8256378 C201.116031,51.0843805 200.712242,51.3078368 200.304526,51.4960133 C199.89681,51.6841899 199.536144,51.8410013 199.222516,51.9664523 C198.861845,52.1075847 198.536461,52.2330338 198.246355,52.3428035 C197.95625,52.4525731 197.701431,52.5858628 197.481892,52.7426766 C197.262353,52.8994904 197.070259,53.0994249 196.905604,53.3424863 C196.74095,53.5855476 196.60374,53.9030908 196.49397,54.2951252 C196.415563,54.5460272 196.380281,54.7930052 196.388122,55.0360666 C196.395962,55.2791279 196.450846,55.5025842 196.552775,55.7064421 C196.654704,55.9103 196.799755,56.0710317 196.987931,56.1886421 C197.176108,56.3062524 197.427006,56.3650567 197.740634,56.3650567 C198.03858,56.3650567 198.328681,56.3101727 198.610946,56.200403 C198.89321,56.0906334 199.15979,55.9495031 199.410692,55.777008 C199.661594,55.6045128 199.900731,55.4124188 200.128111,55.2007202 C200.355491,54.9890216 200.563266,54.7734059 200.751443,54.5538666 C201.100626,54.1685613 201.442871,53.7740152 201.778184,53.3702212 C201.985677,53.069634 202.196194,52.778128 202.40974,52.4956961 C202.652802,52.1742279 202.891939,51.8410036 203.12716,51.4960133 C203.36238,51.1353416 203.589757,50.7785957 203.809296,50.4257647 C204.028836,50.0729337 204.256212,49.7161877 204.491433,49.355516 C204.773698,48.9164374 205.024596,48.4656046 205.244135,48.003004 C205.463674,47.5404033 205.706732,47.0895705 205.973316,46.6504919 C206.098767,46.4309526 206.235977,46.2663007 206.38495,46.156531 C206.533923,46.0467614 206.733857,46.0781237 206.984759,46.2506188 C207.533608,46.6112905 208.098129,46.7602613 208.67834,46.6975358 C209.258551,46.6348103 209.846593,46.5172018 210.442486,46.3447066 C210.614981,46.2976625 210.779633,46.305503 210.936447,46.3682285 C211.09326,46.4309541 211.163826,46.5720843 211.148144,46.7916236 C211.132463,47.0111629 211.030535,47.218938 210.842359,47.4149553 C210.654182,47.6109725 210.497371,47.7873853 210.37192,47.9441991 C210.183743,48.1637384 210.00341,48.3793541 209.830915,48.5910527 C209.65842,48.8027513 209.485927,49.018367 209.313432,49.2379063 C208.623452,50.1631075 208.004047,51.0961355 207.455198,52.0370181 C207.282703,52.3192829 207.121971,52.6015435 206.972998,52.8838083 C206.824025,53.1660731 206.686815,53.4483336 206.561364,53.7305984 C206.51432,53.8090053 206.443755,53.9618965 206.349667,54.1892764 C206.255578,54.4166564 206.177173,54.6557938 206.114447,54.9066959 C206.051722,55.1575979 206.02428,55.3849745 206.03212,55.5888324 C206.039961,55.7926903 206.130128,55.9181394 206.302623,55.9651835 C206.475118,56.0122277 206.64369,56.0083074 206.808345,55.9534226 C206.972999,55.8985377 207.133731,55.820132 207.290545,55.7182031 C207.447358,55.6162741 207.592409,55.4986656 207.725701,55.3653739 C207.858992,55.2320821 207.980521,55.1105533 208.090291,55.0007837 C208.576414,54.4989796 209.019406,53.9579802 209.419281,53.3777692 C209.819156,52.7975582 210.222946,52.2330371 210.630661,51.6841889 C210.709068,51.5744193 210.814916,51.4254484 210.948208,51.2372719 C211.081499,51.0490954 211.22655,50.9628491 211.383364,50.9785305 C211.57154,50.9942118 211.653866,51.0843784 211.630344,51.2490329 C211.606822,51.4136873 211.540177,51.5940205 211.430408,51.7900377 C211.320638,51.9860549 211.199109,52.1703083 211.065817,52.3428035 C210.932526,52.5152986 210.842359,52.6250666 210.795315,52.6721107 C210.575776,52.9543755 210.35624,53.2327158 210.1367,53.5071399 C209.917161,53.781564 209.697625,54.0520637 209.478086,54.3186471 C209.305591,54.5538678 209.125258,54.7930052 208.937081,55.0360666 C208.748905,55.2791279 208.560731,55.5104248 208.372554,55.7299641 C207.964838,56.2004054 207.514006,56.6355571 207.020042,57.0354322 C206.526079,57.4353073 205.957637,57.6979665 205.314701,57.8234175 C205.095162,57.8547802 204.871705,57.8626208 204.644325,57.8469394 C204.416945,57.831258 204.20917,57.7842146 204.020994,57.7058077 C203.832817,57.6274008 203.664245,57.5137126 203.515272,57.3647395 C203.366299,57.2157664 203.260451,57.0236724 203.197726,56.7884517 C203.119319,56.5061869 203.087956,56.2278467 203.103638,55.9534226 C203.119319,55.6789985 203.166363,55.4084988 203.24477,55.1419153 C203.323176,54.8753319 203.417263,54.6087525 203.527033,54.3421691 C203.636803,54.0755857 203.754411,53.8246874 203.879862,53.5894667 C204.224852,52.8838048 204.671765,52.2251968 205.220613,51.6136231 C205.769461,51.0020493 206.318301,50.4218471 206.86715,49.8729989 C206.961238,49.7789106 207.106288,49.661302 207.302306,49.5201696 C207.498323,49.3790373 207.619852,49.2457475 207.666896,49.1202965 C207.71394,49.0262083 207.71786,48.967404 207.678657,48.9438819 C207.639453,48.9203598 207.584569,48.908599 207.514003,48.908599 C207.443437,48.908599 207.365031,48.9164396 207.278784,48.9321209 C207.192536,48.9478023 207.125891,48.9556429 207.078847,48.9556429 C206.922033,48.9556429 206.773063,48.91644 206.63193,48.8380331 C206.490798,48.7596263 206.341827,48.7047423 206.185013,48.6733795 C205.965474,48.6420167 205.796902,48.6890602 205.679291,48.8145112 C205.561681,48.9399622 205.447993,49.0889331 205.338223,49.2614282 C205.197091,49.4809675 205.05596,49.7083441 204.914828,49.9435647 C204.773695,50.1787854 204.632565,50.4140025 204.491433,50.6492232 C204.403115,50.7979685 204.314454,50.9456798 204.225448,51.0923574 C204.190938,51.2220881 204.126707,51.3527194 204.032755,51.4842524 C203.92385,51.6367194 203.820996,51.775874 203.724193,51.9017173 C203.678164,51.9745283 203.632046,52.0470708 203.585838,52.119345 C203.280051,52.597627 202.954667,53.0719815 202.609677,53.5424228 C202.4215,53.8090063 202.225486,54.0677451 202.021628,54.3186471 C201.81777,54.5695492 201.606075,54.8204475 201.386536,55.0713495 C201.32381,55.134075 201.206202,55.2673647 201.033706,55.4712226 C200.861211,55.6750805 200.653436,55.9024571 200.410375,56.1533591 C200.167313,56.4042612 199.904654,56.6551594 199.622389,56.9060615 C199.340125,57.1569635 199.073545,57.3686589 198.822643,57.5411541 C198.571741,57.7136492 198.344365,57.8155767 198.140507,57.8469394 C197.955061,57.8754696 197.821523,57.819652 197.739891,57.679485 Z M162.82225,52.3750869 C162.741701,52.4836958 162.659391,52.5905443 162.575321,52.6956327 C162.324419,53.0092602 162.06568,53.3228831 161.799096,53.6365106 C161.485469,53.9971823 161.171846,54.3421674 160.858218,54.6714764 C160.544591,55.0007853 160.215287,55.3300893 159.870296,55.6593982 C159.807571,55.7064423 159.721325,55.7770075 159.611555,55.8710957 C159.501785,55.965184 159.384177,56.0553506 159.258726,56.1415982 C159.133275,56.2278457 159.007826,56.2905703 158.882375,56.3297737 C158.756924,56.3689772 158.647156,56.3650569 158.553067,56.3180128 C158.427616,56.2552873 158.364892,56.1612004 158.364892,56.0357494 C158.364892,55.9102984 158.380573,55.8005304 158.411936,55.7064421 C158.537387,55.1575939 158.756923,54.6401162 159.07055,54.1539935 C159.384178,53.6678708 159.682119,53.1974365 159.964384,52.7426766 C160.105517,52.5231373 160.238806,52.3036013 160.364257,52.084062 C160.489708,51.8645228 160.615158,51.6449868 160.740609,51.4254475 C161.179687,50.6727414 161.610919,49.9239668 162.034316,49.1791014 C162.457713,48.434236 162.912466,47.7011426 163.398589,46.9797992 C163.429952,46.9327551 163.469154,46.8700305 163.516198,46.7916236 C163.563243,46.7132167 163.602445,46.6387313 163.633808,46.5681651 C163.665171,46.4975989 163.673012,46.4231135 163.65733,46.3447066 C163.641649,46.2662997 163.594605,46.2035751 163.516198,46.156531 C163.390747,46.0781241 163.265298,46.0663633 163.139847,46.1212481 C163.014396,46.1761329 162.888947,46.2035749 162.763496,46.2035749 C162.496913,46.2192563 162.218572,46.2192563 161.928467,46.2035749 C161.638361,46.1878935 161.375702,46.2270964 161.140482,46.3211847 C160.952305,46.3995915 160.811175,46.5172001 160.717087,46.6740139 C160.685724,46.7053766 160.62692,46.7877026 160.540672,46.9209943 C160.454424,47.054286 160.419142,47.136612 160.434823,47.1679748 C160.309372,46.9954796 160.203525,46.8151465 160.117277,46.62697 C160.031029,46.4387935 159.878138,46.3133443 159.658599,46.2506188 C159.517467,46.2035747 159.372416,46.1722124 159.223443,46.156531 C159.07447,46.1408496 158.929419,46.1251685 158.788287,46.1094871 C158.474659,46.1094871 158.172797,46.1643711 157.882692,46.2741408 C157.592586,46.3839104 157.306405,46.4936784 157.024141,46.603448 C156.67915,46.7288991 156.353767,46.8778699 156.04798,47.0503651 C155.742193,47.2228602 155.440331,47.4031933 155.142385,47.5913699 C154.938527,47.7325023 154.742513,47.8736325 154.554336,48.0147649 C154.36616,48.1558973 154.185826,48.3048682 154.013331,48.461682 C153.386076,49.0105302 152.829396,49.6064136 152.343273,50.2493501 C151.85715,50.8922865 151.402397,51.5665756 150.979,52.2722376 C150.696735,52.7583603 150.469359,53.2601569 150.296863,53.7776423 C150.171412,54.1853581 150.085166,54.5773867 150.038122,54.9537398 C150.006759,55.2046418 149.994998,55.4751415 150.002839,55.765247 C150.01068,56.0553525 150.053803,56.3336927 150.13221,56.6002762 C150.210617,56.8668596 150.332146,57.105997 150.4968,57.3176956 C150.661454,57.5293942 150.884911,57.6822853 151.167176,57.7763736 L151.214219,57.7998955 C151.574891,57.8939838 151.951239,57.8900635 152.343273,57.7881346 C152.735307,57.6862056 153.088133,57.541155 153.401761,57.3529785 C154.013334,57.0079882 154.562174,56.5767568 155.048297,56.0592713 C155.158067,55.9338203 155.263914,55.8162117 155.365843,55.7064421 C155.467772,55.5966725 155.581461,55.4869045 155.706912,55.3771348 C155.769637,55.3144093 155.836282,55.2399239 155.906848,55.1536763 C155.977414,55.0674287 156.0519,55.016465 156.130307,55.0007837 C156.145988,55.0791905 156.138147,55.1575963 156.106785,55.2360031 C156.075422,55.31441 156.04406,55.3928157 156.012697,55.4712226 C155.93429,55.8162129 155.93037,56.1690386 156.000936,56.5297103 C156.071502,56.890382 156.240074,57.1961643 156.506658,57.4470663 C156.788923,57.7293311 157.102545,57.8626208 157.447536,57.8469394 C157.792526,57.831258 158.137511,57.7410915 158.482502,57.576437 C158.827492,57.4117826 159.152876,57.2000871 159.458662,56.9413444 C159.764449,56.6826017 160.019268,56.4434643 160.223126,56.223925 C160.493295,55.9395358 160.760238,55.651927 161.02396,55.3610916 C160.682019,55.9308545 160.297467,56.4693625 159.870296,56.9766273 C159.744845,57.1177597 159.678201,57.2667306 159.67036,57.4235443 C159.662519,57.5803581 159.697802,57.7058073 159.776209,57.7998955 C159.823253,57.8312583 159.913419,57.8508597 160.046711,57.8587004 C160.180003,57.8665411 160.497546,57.8704614 160.99935,57.8704614 C161.156164,57.8704614 161.309055,57.8743817 161.458028,57.8822223 C161.607001,57.890063 161.759892,57.8861427 161.916706,57.8704614 C162.07352,57.85478 162.206809,57.8038163 162.316579,57.7175687 C162.426349,57.6313211 162.520436,57.5254734 162.598842,57.4000224 C162.91247,56.9766252 163.218252,56.5453938 163.516198,56.1063152 C163.814145,55.6672367 164.112086,55.2203241 164.410033,54.7655642 C164.864792,54.0599022 165.299944,53.3581711 165.715501,52.6603498 C166.131057,51.9625285 166.613252,51.3000002 167.162101,50.6727451 L167.938325,49.7553891 C168.173545,49.4888057 168.416603,49.2261466 168.667505,48.9674039 C168.918407,48.7086611 169.192827,48.4695237 169.490773,48.2499844 C169.553499,48.2029403 169.663267,48.1245346 169.820081,48.0147649 C169.976894,47.9049953 170.137626,47.8148287 170.302281,47.7442625 C170.466935,47.6736963 170.623747,47.6384138 170.77272,47.6384138 C170.921693,47.6384138 171.035381,47.7168195 171.113788,47.8736333 C171.192195,48.0461284 171.200035,48.2303818 171.13731,48.426399 C171.074584,48.6224163 170.980497,48.8145103 170.855046,49.0026868 C170.729595,49.1908633 170.596306,49.3711964 170.455173,49.5436916 C170.314041,49.7161867 170.196432,49.8729982 170.102344,50.0141306 C169.898486,50.3277581 169.694631,50.641381 169.490773,50.9550085 C169.286916,51.2686361 169.083061,51.5822589 168.879203,51.8958864 C168.518531,52.4133719 168.169626,52.9347699 167.832476,53.460096 C167.495326,53.9854222 167.193464,54.5381824 166.926881,55.1183934 C166.832793,55.3379327 166.750467,55.5653092 166.679901,55.8005299 C166.609334,56.0357506 166.570132,56.274888 166.562291,56.5179493 C166.55445,56.7610107 166.585812,56.9923075 166.656379,57.2118468 C166.726945,57.4313861 166.864155,57.6352409 167.068013,57.8234175 C167.193464,57.9331871 167.346355,58.0115928 167.526691,58.058637 C167.707027,58.1056811 167.89128,58.1370434 168.079457,58.1527248 C168.659667,58.1840875 169.235949,58.0664789 169.80832,57.7998955 C170.38069,57.5333121 170.886407,57.2196893 171.325485,56.8590176 C171.937059,56.3572135 172.49766,55.7966127 173.007305,55.1771983 C173.516949,54.5577839 174.030507,53.9501396 174.547992,53.3542473 C174.642081,53.2444776 174.751849,53.1151082 174.8773,52.9661351 C175.002751,52.817162 175.120359,52.6603506 175.230129,52.4956961 C175.339898,52.3310417 175.418304,52.1663897 175.465348,52.0017352 C175.512392,51.8370808 175.496711,51.6685085 175.418304,51.4960133 C175.355579,51.3705623 175.261492,51.3274392 175.136041,51.3666426 C175.01059,51.4058461 174.908663,51.4646503 174.830256,51.5430572 C174.657761,51.7155524 174.51271,51.9076464 174.3951,52.119345 C174.277489,52.3310436 174.14812,52.5388187 174.006988,52.7426766 C173.865855,52.9622159 173.724725,53.169991 173.583592,53.3660082 C173.44246,53.5620254 173.285649,53.7541194 173.113153,53.942296 C172.752482,54.3813745 172.380055,54.8282871 171.995861,55.283047 C171.611667,55.737807 171.168675,56.1063138 170.666871,56.3885786 C170.510057,56.4669855 170.310123,56.5532318 170.067061,56.64732 C169.824,56.7414083 169.616225,56.7335677 169.44373,56.6237981 C169.349641,56.5610726 169.302598,56.4748263 169.302598,56.3650567 C169.302598,56.255287 169.32612,56.1376785 169.373164,56.0122274 C169.420208,55.8867764 169.479012,55.7691679 169.549578,55.6593982 C169.620144,55.5496286 169.671108,55.4555417 169.702471,55.3771348 C170.047461,54.7028356 170.44733,54.0442276 170.90209,53.4012912 C171.215718,52.9308498 171.541102,52.4643359 171.878251,52.0017352 C172.215401,51.5391346 172.548625,51.0726206 172.877934,50.6021793 C173.17588,50.1787821 173.430699,49.724029 173.642397,49.2379063 C173.854096,48.7517836 173.944262,48.2343059 173.9129,47.6854577 C173.897218,47.3875115 173.810972,47.1444538 173.654158,46.9562773 C173.497345,46.7681007 173.305251,46.6230502 173.077871,46.5211212 C172.850491,46.4191923 172.603513,46.3564677 172.336929,46.3329456 C172.070346,46.3094236 171.819447,46.3211844 171.584227,46.3682285 C171.223555,46.4466354 170.87857,46.564244 170.549261,46.7210578 C170.219952,46.8778716 169.898489,47.0582047 169.584861,47.2620626 C169.45941,47.3404695 169.341802,47.4227955 169.232032,47.5090431 C169.122262,47.5952906 169.004654,47.6854572 168.879203,47.7795455 C168.800796,47.8579523 168.694948,47.9402783 168.561656,48.0265259 C168.428365,48.1127735 168.338198,48.2029401 168.291154,48.2970283 L168.314676,48.2499844 C168.330357,48.2186217 168.346039,48.1833391 168.36172,48.1441357 C168.377401,48.1049322 168.408764,48.0461279 168.455808,47.967721 C168.863523,47.2463777 168.918407,46.7210594 168.620461,46.3917505 C168.589099,46.3603877 168.549896,46.3329457 168.502852,46.3094237 C168.455807,46.2859016 168.377402,46.2741408 168.267632,46.2741408 C168.157862,46.2741408 168.001051,46.2819813 167.797193,46.2976627 C167.593335,46.3133441 167.326756,46.3368658 166.997447,46.3682285 C166.871996,46.3839099 166.758308,46.3917505 166.656379,46.3917505 C166.55445,46.3917505 166.487805,46.3839099 166.456442,46.3682285 C166.283947,46.3211844 166.158498,46.3447061 166.080091,46.4387944 C166.001684,46.5328827 165.938959,46.6504912 165.891915,46.7916236 C165.844871,46.932756 165.813509,47.0817269 165.797827,47.2385406 C165.782146,47.3953544 165.758624,47.5208036 165.727262,47.6148918 C165.680218,47.7560242 165.617493,47.8932342 165.539086,48.0265259 C165.460679,48.1598176 165.382273,48.2891871 165.303867,48.4146381 C165.052965,48.7909911 164.813827,49.1712588 164.586447,49.5554526 C164.359067,49.9396463 164.11993,50.3120734 163.869028,50.6727451 C163.618126,51.0647796 163.375068,51.4568081 163.139847,51.8488426 C163.035523,52.0227159 162.929658,52.1981303 162.82225,52.3750869 Z M152.155097,45.709614 C152.343274,45.9134719 152.445201,46.1565296 152.460883,46.4387944 C152.476564,46.7210592 152.445202,46.979798 152.366795,47.2150187 C152.319751,47.3718325 152.284468,47.5247236 152.260946,47.6736967 C152.237424,47.8226698 152.202141,47.9677203 152.155097,48.1088527 C152.092372,48.2813479 152.029647,48.4499202 151.966922,48.6145746 C151.904196,48.7792291 151.841472,48.9478014 151.778746,49.1202965 C151.668977,49.4496055 151.539607,49.7632283 151.390634,50.0611745 C151.241661,50.3591206 151.080929,50.6570623 150.908434,50.9550085 C150.500718,51.6136264 150.077327,52.2487126 149.638249,52.8602863 C149.41871,53.1582325 149.191333,53.4326525 148.956112,53.6835545 C148.720892,53.9344566 148.493515,54.1931954 148.273976,54.4597788 C148.007392,54.7734064 147.740813,55.0674278 147.47423,55.3418519 C147.207646,55.616276 146.917545,55.8789351 146.603918,56.1298372 C146.431422,56.2552882 146.270691,56.3728968 146.121718,56.4826664 C145.972744,56.5924361 145.812013,56.702204 145.639518,56.8119737 C145.357253,57.0158316 145.067152,57.200085 144.769206,57.3647395 C144.471259,57.5293939 144.165477,57.6548431 143.85185,57.7410907 C143.538222,57.8273382 143.220679,57.8665411 142.899211,57.8587004 C142.577742,57.8508597 142.244518,57.7763743 141.899528,57.6352419 C141.632944,57.5411536 141.444771,57.3451393 141.335001,57.0471932 C141.20955,56.749247 141.146825,56.4042619 141.146825,56.0122274 C141.131144,55.6358744 141.166427,55.2712878 141.252674,54.9184568 C141.338922,54.5656258 141.44869,54.224561 141.581982,53.8952521 C141.715273,53.5659431 141.872085,53.2444797 142.05242,52.9308522 C142.232756,52.6172246 142.409169,52.2957612 142.581664,51.9664523 C142.691434,51.7782758 142.797282,51.5861818 142.899211,51.3901646 C143.00114,51.1941473 143.106987,50.9942128 143.216757,50.7903549 C143.389252,50.4767273 143.577426,50.1631045 143.781284,49.8494769 C143.985142,49.5358494 144.173315,49.2222265 144.34581,48.908599 C144.628075,48.3597508 144.863292,47.8109108 145.051469,47.2620626 C145.129876,47.0425233 145.220042,46.8386685 145.321971,46.6504919 C145.4239,46.4623154 145.600313,46.3525474 145.851215,46.3211847 C146.149161,46.2741405 146.451023,46.2545391 146.75681,46.2623798 C147.062597,46.2702205 147.364459,46.2819813 147.662405,46.2976627 C148.101484,46.2976627 148.273976,46.5093581 148.179888,46.9327553 C148.132844,47.167976 148.050518,47.3835917 147.932908,47.5796089 C147.815297,47.7756261 147.70945,47.9834012 147.615361,48.2029405 C147.442866,48.594975 147.239011,48.9713224 147.003791,49.3319941 C146.76857,49.6926657 146.541193,50.053332 146.321654,50.4140037 C146.086433,50.8217195 145.847296,51.2294292 145.604235,51.637145 C145.361173,52.0448608 145.106355,52.4525705 144.839771,52.8602863 C144.71432,53.0641442 144.588871,53.2640788 144.46342,53.460096 C144.337969,53.6561132 144.236042,53.8638884 144.157635,54.0834277 C144.047865,54.3343297 143.942018,54.5969888 143.840089,54.8714129 C143.73816,55.145837 143.702877,55.4320179 143.73424,55.7299641 C143.765603,55.9495033 143.86361,56.1180756 144.028264,56.2356859 C144.192919,56.3532963 144.392853,56.3885788 144.628074,56.3415347 C145.082834,56.2474465 145.521906,56.0239902 145.945303,55.6711592 C146.3687,55.3183282 146.713685,54.9537416 146.980269,54.5773886 C147.121401,54.3735307 147.266452,54.1775164 147.415425,53.9893399 C147.564398,53.8011633 147.701608,53.6051491 147.827059,53.4012912 C148.077961,53.0406195 148.313178,52.6760329 148.532717,52.3075205 C148.752257,51.9390082 148.963952,51.5587405 149.16781,51.166706 C149.544163,50.4453627 149.842105,49.7161896 150.061644,48.9791648 C150.124369,48.7753069 150.187094,48.5714521 150.24982,48.3675942 C150.312545,48.1637363 150.351748,47.9520408 150.367429,47.7325016 C150.398792,47.5286437 150.394872,47.3326294 150.355668,47.1444529 C150.316465,46.9562763 150.289023,46.7681026 150.273341,46.5799261 C150.273341,46.4544751 150.308624,46.3172651 150.37919,46.168292 C150.449756,46.0193189 150.524242,45.89779 150.602649,45.8037018 C150.775144,45.6312066 150.9986,45.5175184 151.273024,45.4626335 C151.547448,45.4077487 151.794426,45.4508719 152.013966,45.5920042 C152.045328,45.623367 152.06885,45.6429684 152.084532,45.6508091 C152.100213,45.6586498 152.123735,45.6782512 152.155097,45.709614 Z M153.378239,56.1533591 C153.801636,55.9495012 154.181904,55.6868421 154.519053,55.3653739 C154.856203,55.0439056 155.173746,54.7028408 155.471692,54.3421691 C155.973496,53.714914 156.451771,53.0759075 156.906531,52.4251303 C157.361291,51.7743531 157.784682,51.0961437 158.176716,50.3904817 C158.349211,50.0768542 158.521704,49.7632314 158.694199,49.4496038 C158.866694,49.1359763 159.015665,48.8066723 159.141116,48.461682 C159.203842,48.2578241 159.254805,48.0382881 159.294009,47.8030674 C159.333212,47.5678467 159.282248,47.3561513 159.141116,47.1679748 C158.968621,46.9484355 158.741244,46.8700298 158.45898,46.9327553 C158.176715,46.9954808 157.933657,47.0817271 157.729799,47.1914967 C157.16527,47.5051243 156.659553,47.9363557 156.212633,48.4852039 C155.765714,49.0340521 155.354084,49.567211 154.977731,50.0846964 C154.758192,50.3669612 154.554337,50.6570623 154.366161,50.9550085 C154.177984,51.2529547 153.98197,51.5508964 153.778112,51.8488426 C153.574254,52.1467887 153.38608,52.452571 153.213585,52.7661985 C153.04109,53.0798261 152.868597,53.4012895 152.696102,53.7305984 C152.633377,53.8717308 152.558891,54.0285423 152.472644,54.2010374 C152.386396,54.3735326 152.311911,54.5538657 152.249185,54.7420422 C152.18646,54.9302187 152.143337,55.1144722 152.119814,55.294808 C152.096292,55.4751438 152.123734,55.6437161 152.202141,55.8005299 C152.327592,56.0671133 152.492244,56.2200045 152.696102,56.2592079 C152.89996,56.2984113 153.127337,56.2631288 153.378239,56.1533591 Z M184.262557,56.5061884 C184.764361,56.3336932 185.199513,56.0553529 185.568025,55.6711592 C185.936538,55.2869654 186.293284,54.8910166 186.638274,54.4833008 C187.108715,53.9187712 187.563468,53.3385689 188.002547,52.7426766 C188.441625,52.1467843 188.841495,51.5195386 189.202166,50.8609207 C189.311936,50.6727442 189.433465,50.4610488 189.566756,50.2258281 C189.700048,49.9906074 189.821577,49.7475497 189.931347,49.4966477 C190.041116,49.2457457 190.131283,48.9948474 190.201849,48.7439453 C190.272415,48.4930433 190.299857,48.2499856 190.284176,48.0147649 C190.268495,47.8422698 190.194009,47.6815381 190.060717,47.532565 C189.927426,47.3835919 189.766694,47.2934253 189.578517,47.2620626 C189.311934,47.2463812 189.041434,47.3130261 188.76701,47.4619992 C188.492586,47.6109722 188.229927,47.7952257 187.979025,48.0147649 C187.728123,48.2343042 187.492906,48.4656011 187.273366,48.7086624 C187.053827,48.9517238 186.865653,49.1594989 186.70884,49.3319941 C186.269761,49.8181168 185.858131,50.315993 185.473937,50.8256378 C185.089744,51.3352826 184.709476,51.84884 184.333123,52.3663254 C184.003814,52.8210854 183.694111,53.3072008 183.404006,53.8246862 C183.1139,54.3421717 182.945328,54.8988522 182.898284,55.4947446 C182.85124,55.9181418 182.972769,56.2278443 183.262874,56.4238615 C183.55298,56.6198788 183.878363,56.6473208 184.239035,56.5061884 L184.262557,56.5061884 Z M197.928809,51.660667 C198.05426,51.6293042 198.19147,51.5744202 198.340443,51.4960133 C198.489416,51.4176064 198.579583,51.370563 198.610946,51.3548816 C199.065706,51.0882982 199.493017,50.7668348 199.892892,50.3904817 C200.292767,50.0141287 200.649513,49.6221001 200.963141,49.2143843 C201.151317,48.9791637 201.33165,48.7125842 201.504145,48.4146381 C201.67664,48.1166919 201.770727,47.8109096 201.786409,47.4972821 C201.80209,47.3718311 201.766808,47.2503022 201.68056,47.1326919 C201.594312,47.0150815 201.480624,46.9719584 201.339492,47.0033212 C201.151315,47.0503653 200.963141,47.1640536 200.774965,47.3443894 C200.586788,47.5247253 200.429977,47.6776164 200.304526,47.8030674 C200.210438,47.9128371 200.116351,48.0186848 200.022263,48.1206137 C199.928174,48.2225427 199.841928,48.3205498 199.763521,48.4146381 C199.512619,48.7282656 199.269561,49.0379682 199.034341,49.343755 C198.79912,49.6495419 198.571744,49.967085 198.352204,50.296394 C198.320841,50.3434381 198.254197,50.4453655 198.152268,50.6021793 C198.050339,50.7589931 197.956252,50.923645 197.870004,51.0961402 C197.783757,51.2686354 197.732793,51.4136859 197.717112,51.5312962 C197.70143,51.6489066 197.771995,51.6920297 197.928809,51.660667 Z M210.113178,63.515729 C209.689781,63.4530035 209.278151,63.3393152 208.878276,63.1746608 C208.478401,63.0100063 208.176539,62.7238255 207.972681,62.3161096 C207.878593,62.1279331 207.815868,61.920158 207.784506,61.692778 C207.753143,61.465398 207.768824,61.2419418 207.831549,61.0224025 C207.894275,60.8185446 208.011884,60.6303709 208.184379,60.4578757 C208.356874,60.2853806 208.548968,60.1560111 208.760666,60.0697636 C208.972365,59.983516 209.187981,59.956074 209.40752,59.9874367 C209.627059,60.0187995 209.823074,60.1364081 209.995569,60.340266 C210.152383,60.5284425 210.246469,60.7558191 210.277832,61.0224025 C210.277832,61.1948976 210.25039,61.3752308 210.195505,61.5634073 C210.14062,61.7515838 210.081816,61.8378301 210.019091,61.8221487 C209.877958,61.790786 209.799553,61.8652714 209.783871,62.0456072 C209.76819,62.2259431 209.823074,62.3945153 209.948525,62.5513291 C210.073976,62.7081429 210.26607,62.8022298 210.524813,62.8335925 C210.783555,62.8649553 210.999171,62.8806364 211.171666,62.8806364 C211.469612,62.8806364 211.740112,62.8414335 211.983173,62.7630267 C212.226235,62.6846198 212.481053,62.5826923 212.747637,62.4572413 C213.155353,62.2847462 213.551301,62.0652102 213.935495,61.7986268 C214.319689,61.5320434 214.652913,61.2184205 214.935178,60.8577488 C215.342894,60.3716261 215.738843,59.8815904 216.123036,59.387627 C216.50723,58.8936637 216.871817,58.3879468 217.216807,57.8704614 C217.577479,57.3529759 217.926384,56.8198171 218.263534,56.2709689 C218.600683,55.7221207 218.933908,55.1732807 219.263216,54.6244325 C219.451393,54.3108049 219.643487,53.9971821 219.839504,53.6835545 C220.035521,53.369927 220.227615,53.0563041 220.415792,52.7426766 C220.682375,52.3349608 220.933274,51.9194105 221.168494,51.4960133 C221.403715,51.0726161 221.631092,50.6413847 221.850631,50.2023062 C222.07017,49.8259531 222.289706,49.4496057 222.509245,49.0732526 C222.728785,48.6968996 222.94048,48.3127116 223.144338,47.9206772 C223.269789,47.7325006 223.359956,47.5325661 223.41484,47.3208675 C223.469725,47.1091689 223.544211,46.9013937 223.638299,46.6975358 C223.701024,46.5564034 223.78335,46.454476 223.885279,46.3917505 C223.987208,46.329025 224.104817,46.2898221 224.238109,46.2741408 C224.3714,46.2584594 224.50469,46.2545391 224.637982,46.2623798 C224.771273,46.2702205 224.900643,46.2741408 225.026094,46.2741408 C225.21427,46.2741408 225.410285,46.2427785 225.614143,46.180053 C225.818,46.1173275 226.006174,46.1173275 226.178669,46.180053 C226.335483,46.2270971 226.437411,46.3094231 226.484455,46.4270334 C226.531499,46.5446438 226.54326,46.6779335 226.519738,46.8269065 C226.496216,46.9758796 226.457013,47.1209302 226.402128,47.2620626 C226.347243,47.403195 226.296279,47.5208036 226.249235,47.6148918 C225.982652,48.16374 225.68863,48.7008191 225.367162,49.2261453 C225.045694,49.7514714 224.728151,50.28071 224.414523,50.8138768 C224.194984,51.1902299 223.979368,51.5704976 223.76767,51.9546913 C223.555971,52.3388851 223.332515,52.7191528 223.097294,53.0955058 C222.642534,53.8325306 222.195622,54.5577834 221.756543,55.2712861 C221.317464,55.9847887 220.878392,56.702201 220.439314,57.4235443 C220.031598,58.0664808 219.596446,58.6819657 219.133846,59.2700173 C218.671245,59.858069 218.165528,60.4108292 217.61668,60.9283147 C217.318734,61.2262608 216.99727,61.5006808 216.65228,61.7515829 C215.993662,62.2063428 215.311533,62.5905308 214.605871,62.9041584 C213.900209,63.2177859 213.147514,63.4216407 212.347764,63.515729 C212.128224,63.5470918 211.900848,63.5627729 211.665627,63.5627729 L210.983491,63.5627729 L210.548335,63.5627729 C210.399361,63.5627729 210.254311,63.5470918 210.113178,63.515729 Z M226.766718,42.8634582 C226.56286,42.7536886 226.402128,42.5968772 226.284518,42.3930193 C226.166908,42.1891613 226.131625,41.9539442 226.178669,41.6873608 C226.225713,41.4364588 226.335481,41.1894808 226.507977,40.9464194 C226.680472,40.7033581 226.860805,40.5112641 227.048981,40.3701317 C227.299883,40.1662738 227.597825,40.0643463 227.942815,40.0643463 C228.44462,40.0643463 228.766083,40.3074041 228.907215,40.7935268 C228.954259,40.9973847 228.9621,41.2051598 228.930737,41.4168584 C228.899375,41.628557 228.828809,41.8324118 228.71904,42.028429 C228.60927,42.2244463 228.479901,42.3969388 228.330928,42.5459119 C228.181955,42.694885 228.013382,42.8085733 227.825206,42.8869802 C227.448853,43.0437939 227.096027,43.0359534 226.766718,42.8634582 Z M226.437411,56.1533591 C226.860808,55.9495012 227.241076,55.6868421 227.578225,55.3653739 C227.915375,55.0439056 228.232918,54.7028408 228.530864,54.3421691 C229.032668,53.714914 229.510943,53.0759075 229.965703,52.4251303 C230.420463,51.7743531 230.843854,51.0961437 231.235888,50.3904817 C231.408383,50.0768542 231.580876,49.7632314 231.753371,49.4496038 C231.925866,49.1359763 232.074837,48.8066723 232.200288,48.461682 C232.263014,48.2578241 232.313977,48.0382881 232.353181,47.8030674 C232.392384,47.5678467 232.341421,47.3561513 232.200288,47.1679748 C232.027793,46.9484355 231.800416,46.8700298 231.518152,46.9327553 C231.235887,46.9954808 230.992829,47.0817271 230.788971,47.1914967 C230.224442,47.5051243 229.718725,47.9363557 229.271806,48.4852039 C228.824886,49.0340521 228.413256,49.567211 228.036903,50.0846964 C227.817364,50.3669612 227.613509,50.6570623 227.425333,50.9550085 C227.237156,51.2529547 227.041142,51.5508964 226.837284,51.8488426 C226.633426,52.1467887 226.445252,52.452571 226.272757,52.7661985 C226.100262,53.0798261 225.927769,53.4012895 225.755274,53.7305984 C225.692549,53.8717308 225.618063,54.0285423 225.531816,54.2010374 C225.445568,54.3735326 225.371083,54.5538657 225.308357,54.7420422 C225.245632,54.9302187 225.202509,55.1144722 225.178987,55.294808 C225.155464,55.4751438 225.182906,55.6437161 225.261313,55.8005299 C225.386764,56.0671133 225.551416,56.2200045 225.755274,56.2592079 C225.959132,56.2984113 226.186509,56.2631288 226.437411,56.1533591 Z M238.73939,56.2709689 C238.927566,56.192562 239.11966,56.082794 239.315678,55.9416616 C239.511695,55.8005292 239.699868,55.6554786 239.880204,55.5065055 C240.06054,55.3575325 240.217352,55.2164022 240.350643,55.0831105 C240.483935,54.9498188 240.589783,54.8518116 240.66819,54.7890861 C241.060224,54.4284144 241.393448,54.0363859 241.667872,53.6129887 C241.942297,53.1895915 242.228477,52.7740412 242.526424,52.3663254 C242.761644,52.0526979 242.992941,51.7233939 243.220321,51.3784036 C243.447701,51.0334133 243.671157,50.6884282 243.890697,50.3434378 C244.063192,50.0768544 244.212163,49.8024344 244.337614,49.5201696 C244.463065,49.2379049 244.564992,48.9399632 244.643399,48.6263356 C244.690443,48.4695218 244.717885,48.293109 244.725726,48.0970918 C244.733566,47.9010745 244.713965,47.7246617 244.666921,47.5678479 C244.619877,47.4110341 244.53363,47.2895053 244.408179,47.2032577 C244.282728,47.1170101 244.102395,47.1052493 243.867175,47.1679748 C243.412415,47.2934258 242.989024,47.5364835 242.596989,47.8971552 C242.204955,48.2578269 241.852129,48.602812 241.538502,48.9321209 C241.193511,49.2927926 240.864207,49.6769806 240.55058,50.0846964 C240.236952,50.4924122 239.939011,50.9001219 239.656746,51.3078377 C239.3588,51.7469163 239.080459,52.1899086 238.821717,52.6368278 C238.562974,53.0837471 238.315996,53.5345799 238.080775,53.9893399 C238.01805,54.1147909 237.947485,54.2637617 237.869078,54.4362569 C237.790671,54.608752 237.724026,54.7890852 237.669141,54.9772617 C237.614256,55.1654382 237.578974,55.3496917 237.563292,55.5300275 C237.547611,55.7103633 237.578973,55.871095 237.65738,56.0122274 C237.782831,56.2317667 237.939643,56.3493753 238.127819,56.3650567 C238.315996,56.380738 238.519851,56.3493758 238.73939,56.2709689 Z M247.724774,57.7763736 C247.505235,57.7136481 247.285699,57.5960395 247.06616,57.4235443 C246.689807,57.1412796 246.450669,56.7923741 246.34874,56.3768176 C246.246811,55.9612611 246.22329,55.5261094 246.278174,55.0713495 C246.333059,54.6165896 246.446747,54.169677 246.619243,53.7305984 C246.791738,53.2915199 246.972071,52.9073319 247.160247,52.578023 C247.75614,51.4646452 248.395146,50.3669652 249.077286,49.2849502 C249.759426,48.2029351 250.476838,47.1522986 251.229544,46.1330091 C251.464765,45.8507443 251.652939,45.5841649 251.794071,45.3332628 C251.841115,45.2391746 251.892079,45.1294066 251.946964,45.0039555 C252.001849,44.8785045 252.084175,44.7922582 252.193944,44.7452141 C252.099856,44.6668072 251.958726,44.6236841 251.770549,44.6158434 C251.582373,44.6080027 251.40204,44.6001621 251.229544,44.5923214 C251.057049,44.5844807 250.908078,44.5491982 250.782627,44.4864727 C250.657176,44.4237472 250.610133,44.298298 250.641496,44.1101215 C250.672859,43.9376263 250.763025,43.8200178 250.911998,43.7572923 C251.060971,43.6945668 251.225623,43.6592842 251.405959,43.6514435 C251.586295,43.6436028 251.766628,43.6514434 251.946964,43.6749654 C252.1273,43.6984875 252.27235,43.7024078 252.38212,43.6867264 C252.601659,43.6553637 252.797674,43.576958 252.970169,43.4515069 C253.142664,43.3260559 253.299475,43.1731648 253.440608,42.9928289 C253.58174,42.8124931 253.707189,42.6243194 253.816959,42.4283022 C253.926728,42.232285 254.028656,42.0480315 254.122744,41.8755364 C254.295239,41.5619088 254.463812,41.248286 254.628466,40.9346584 C254.793121,40.6210309 254.946012,40.2995675 255.087144,39.9702586 C255.134188,39.8448075 255.181232,39.699757 255.228276,39.5351025 C255.27532,39.370448 255.326284,39.2057961 255.381168,39.0411416 C255.436053,38.8764871 255.498778,38.7196757 255.569344,38.5707026 C255.63991,38.4217295 255.730077,38.3002007 255.839846,38.2061124 C255.965297,38.1120242 256.114268,38.0492996 256.286763,38.0179368 C256.459259,37.9865741 256.639592,37.9708929 256.827768,37.9708929 C257.015945,37.9708929 257.204118,37.9787335 257.392295,37.9944149 C257.580472,38.0100963 257.752964,38.0022557 257.909778,37.9708929 C258.097954,37.9395302 258.30965,37.9199287 258.54487,37.9120881 C258.780091,37.9042474 258.960424,38.0100951 259.085875,38.2296344 C259.164282,38.3864481 259.168202,38.562861 259.097636,38.7588782 C259.02707,38.9548954 258.960425,39.1313083 258.8977,39.288122 C258.772249,39.6487937 258.603676,39.9937789 258.391978,40.3230878 C258.180279,40.6523967 257.972504,40.9895413 257.768646,41.3345316 C257.549107,41.7108846 257.290368,42.0989929 256.992422,42.498868 C256.694476,42.8987431 256.48278,43.3182137 256.357329,43.7572923 C256.451418,43.788655 256.569026,43.8004159 256.710158,43.7925752 C256.851291,43.7847345 256.996341,43.7768939 257.145315,43.7690532 C257.294288,43.7612126 257.435418,43.7612126 257.56871,43.7690532 C257.702001,43.7768939 257.81569,43.8121765 257.909778,43.874902 C258.019548,43.9689903 258.035229,44.1101206 257.956822,44.2982971 C257.878415,44.4864736 257.784328,44.6119227 257.674558,44.6746483 C257.455019,44.8000993 257.208041,44.8432224 256.933617,44.804019 C256.659193,44.7648155 256.404374,44.7530547 256.169154,44.7687361 C255.839845,44.7687361 255.581106,44.8667432 255.392929,45.0627604 C255.204753,45.2587776 255.03226,45.4900745 254.875447,45.7566579 C254.138422,46.9484426 253.409249,48.1323688 252.687905,49.3084721 C251.966562,50.4845754 251.206027,51.6528205 250.406276,52.8132424 C250.202418,53.1111886 250.014245,53.4169709 249.84175,53.7305984 C249.669254,54.044226 249.543805,54.37353 249.465398,54.7185203 C249.386991,54.9851037 249.379151,55.2124802 249.441876,55.4006568 C249.504602,55.5888333 249.606529,55.7299636 249.747662,55.8240519 C249.888794,55.9181401 250.061287,55.957343 250.265145,55.9416616 C250.469003,55.9259802 250.688538,55.8554151 250.923759,55.7299641 C251.331475,55.5104248 251.688221,55.2242439 251.994008,54.8714129 C252.299795,54.5185819 252.593816,54.161836 252.876081,53.8011643 C253.221071,53.3777671 253.554295,52.950456 253.875764,52.5192181 C254.197232,52.0879802 254.530456,51.6606691 254.875447,51.2372719 C254.922491,51.1902278 255.012657,51.0804598 255.145949,50.9079646 C255.279241,50.7354695 255.424291,50.5668972 255.581105,50.4022427 C255.737919,50.2375883 255.89081,50.1082188 256.039783,50.0141306 C256.188756,49.9200423 256.302444,49.9278829 256.380851,50.0376525 C256.459258,50.1631035 256.451418,50.3395164 256.357329,50.5668964 C256.263241,50.7942763 256.141712,51.0294935 255.992739,51.2725548 C255.843766,51.5156162 255.686955,51.7429927 255.5223,51.9546913 C255.357646,52.1663899 255.243957,52.3114405 255.181232,52.3898474 C254.883286,52.7975632 254.565743,53.1856714 254.228593,53.5541838 C253.891443,53.9226962 253.550378,54.2872827 253.205388,54.6479544 C252.876079,54.9929447 252.511493,55.3849733 252.111618,55.8240519 C251.711742,56.2631304 251.276591,56.6590793 250.806149,57.0119102 C250.335708,57.3647412 249.841752,57.6274004 249.324267,57.7998955 C248.806781,57.9723907 248.273622,57.9645501 247.724774,57.7763736 Z" id="van-der-jagt"></path>
            </g>
        </g>
    </g>
</svg>