<?xml version="1.0" encoding="UTF-8" standalone="no"?>
<svg width="34px" height="28px" viewBox="0 0 34 28" version="1.1" xmlns="http://www.w3.org/2000/svg" xmlns:xlink="http://www.w3.org/1999/xlink">
    <!-- Generator: Sketch 3.8.2 (29753) - http://www.bohemiancoding.com/sketch -->
    <title>social-color-1_logo-twitter</title>
    <desc>Created with Sketch.</desc>
    <defs></defs>
    <g id="Page-1" stroke="none" stroke-width="1" fill="none" fill-rule="evenodd">
        <g id="Desktop-HD-Copy-11" transform="translate(-264.000000, -625.000000)" fill="#69ACE0">
            <g id="social-color-1_logo-twitter" transform="translate(264.000000, 625.000000)">
                <path d="M33.2173913,3.51546937 C31.9952474,4.05393312 30.6818732,4.41793687 29.3032269,4.581555 C30.7103433,3.74367812 31.7909327,2.41684437 32.2997193,0.8358625 C30.9830096,1.61174062 29.524517,2.17518812 27.9721576,2.47885 C26.7290244,1.162975 24.9578593,0.34078 22.9978187,0.34078 C19.2339768,0.34078 16.1826688,3.37212562 16.1826688,7.1109775 C16.1826688,7.64166562 16.2429445,8.158315 16.3591016,8.65387875 C10.6952595,8.37155687 5.6736896,5.67617187 2.31244946,1.58003312 C1.72583033,2.579995 1.38980181,3.74297 1.38980181,4.98374937 C1.38980181,7.33258625 2.59294957,9.40487625 4.42153236,10.6190219 C3.30441072,10.5838975 2.25359931,10.2792937 1.33473707,9.77218 C1.33425957,9.80047062 1.33415576,9.82876812 1.33415576,9.8572925 C1.33415576,13.1376575 3.68326199,15.8740725 6.80090793,16.4959987 C6.22900134,16.650645 5.62694304,16.7334062 5.00543873,16.7334062 C4.56629098,16.7334062 4.13937138,16.6909669 3.72324743,16.6119869 C4.59049123,19.3017206 7.10727609,21.2591981 10.0894228,21.3138956 C7.75703594,23.1296931 4.8185563,24.212045 1.62568681,24.212045 C1.07559989,24.2120381 0.533111449,24.17998 0,24.1175 C3.0159592,26.03843 6.5981296,27.1592131 10.4466827,27.1592131 C22.9819158,27.1592131 29.8365737,16.8427875 29.8365737,7.89604062 C29.8365737,7.60251937 29.8299371,7.31053812 29.8168785,7.02020687 C31.1483008,6.06563375 32.3037608,4.87317875 33.2173913,3.51546937 L33.2173913,3.51546937 Z" id="Shape"></path>
            </g>
        </g>
    </g>
</svg>